<?xml version="1.0" encoding="utf-8"?>
<!-- Generator: Adobe Illustrator 27.9.6, SVG Export Plug-In . SVG Version: 9.03 Build 54986)  -->
<svg version="1.1" id="Calque_1" xmlns="http://www.w3.org/2000/svg" xmlns:xlink="http://www.w3.org/1999/xlink" x="0px" y="0px"
	 viewBox="0 0 3840 695.8" style="enable-background:new 0 0 3840 695.8;" xml:space="preserve">
<style type="text/css">
	.st0{fill:#FFFFFF;}
</style>
<g>
	<path class="st0" d="M3837.3,35.2c-39.6-6.8-84.7,18.3-104,52.3c-68.9-23-152.4,29.1-162,101.1c-75.6-17-160.3,26.8-190.2,98.2
		c-63.6-27.5-144.9-5.1-185.5,51.1c-66-56.7-172-59.7-241.1-6.9c-37.6-69.9-133.4-101.2-205-67.1c-14.1-50.2-53-92.8-101.8-111.3
		s-106.2-12.4-150,15.9c-15.2-68.4-71.5-125.9-139.6-142.5c-83.7-20.5-171.7-19.3-219.2,66.6c-12.8-38.4-47.6-66.6-85.8-79.9
		C2014.9-0.7,1973.4-1.2,1933,1.3c-4.3,0.3-8.6,0.6-12.9,0.9c-4.3-0.4-8.6-0.7-12.9-0.9c-40.4-2.5-81.9-2-120.1,11.4
		s-73,41.5-85.8,79.9c-47.6-86-135.6-87.2-219.3-66.7c-68,16.7-124.3,74.1-139.6,142.5c-43.8-28.3-101.2-34.4-150-15.9
		s-87.7,61.1-101.8,111.3c-71.6-34.1-167.4-2.8-205,67.1c-69.1-52.8-175.2-49.8-241.1,6.9c-40.6-56.2-121.9-78.5-185.5-51.1
		c-30-71.5-114.6-115.2-190.2-98.2c-9.6-72-93-124.1-162-101.1c-19.3-34-64.4-59.1-104-52.3c-0.9,0.2-1.8,0.3-2.7,0.5v660.1h1920
		h1920v-660C3839.1,35.5,3838.2,35.3,3837.3,35.2z"/>
</g>
</svg>
