<?xml version="1.0" encoding="utf-8"?>
<!-- Generator: Adobe Illustrator 27.9.6, SVG Export Plug-In . SVG Version: 9.03 Build 54986)  -->
<svg version="1.1" id="Calque_1" xmlns="http://www.w3.org/2000/svg" xmlns:xlink="http://www.w3.org/1999/xlink" x="0px" y="0px"
	 viewBox="0 0 2496 329.3" style="enable-background:new 0 0 2496 329.3;" xml:space="preserve">
<style type="text/css">
	.st0{fill:#58C573;}
	.st1{fill:#ABE546;}
</style>
<g>
	<path class="st0" d="M2492.7,6c0,2.1-0.7,4.8-0.5,6.8c-2.2-5.9-7.6-10.9-14.5-11.4c-0.9,3.8-3.4,5.8-3.5,9.9
		c-3.2-4.5-7.3-5.9-11.9-7c-0.2,2.6-2.9,6.1-3.1,8.8c-6.8-4-15.1-10.5-18.1,1.2c-6.2-7.6-17-8-21,1.8c-5.5-4.1-16.5-16.2-20.3-3.3
		c-3.6-10.7-15.7-11.3-21.7-3.1c-10.6-6.4-16.1-3.5-26.8-4.1c-2.8-0.1-9.2-2.8-10.4-2.7c-4.2,0.3-10.6,4-13.6,4
		c-10.6-0.1-41.8-6.4-46.4,5c-11.1-12.6-32.7,10.4-43.6-1.7c-2,4.7-3.6,9.5-4.7,14.5c-3.4-9.2-12.7-14.6-17.6-3
		c-5.9-8.1-20.4-5.8-26.7,0.1c-5-6-10.2,0.6-16.7,1.8c-0.3-2-0.5-3.9-0.7-5.8c-7.6,4.8-14.7,6.6-23.2,10.2c-1.5-12.6-12-5.5-17.7,0
		c0.8-0.9,1.5-1.9,2.1-3c-5.3-2.2-11.8-0.3-17.3,1.5c-0.5-1.9-1.5-3.8-2-5.7c-7-1.1-13.9,1.2-18,7c1.1-2.3,0.8-5.4,1.5-7.3
		c-10.1-3.9-32.6-3.6-38.6,2.7c-0.1-1.8-0.3-3.6-0.4-5.3c-9.6-1.5-29.4-1.7-37,5.3c-6.3-12.9-27.9-11.2-30.7,3.4
		c-3.3-4.5-8.7-8.4-14.7-9.1c-0.7,2.5-4.2,5.9-4.8,8.8c-2.9-4.6-7.4-6.5-12.9-5.4c0,3-2,6.2-2,8.7c-5.1-5.6-15.8-14.2-19.2-1.7
		c-0.5-1.6-1.5-3.9-1.7-5.5c-5,1.5-7.7,2-10,7.3c0.2-2.4-0.8-5.2-0.8-7.3c-2.4,2.4-7.3,3.7-9.5,7.3c-4.4-9.8-17-12.2-18.3-0.4
		c-10.6-13.6-14.9,1.7-24.9,2c-6.6,0.2-8.9-15.9-18.7-3c-4.8-13.9-14.1-0.2-17.8,6c5.3-14.7-12.7-7.8-17.1-0.4
		c-3.9-8.7-11.4-6.6-15.5,0.3c-2-13.1-17.3-1.5-21.4,5.7c0.9-17.5-11.6,0-18,1.8c0.3-2.2-0.5-5-0.4-7.2c-11.7-2.1-17.8,9.2-28.7,7.7
		c-9.4-1.3-19.1-14.8-27.1,0.7c1.6-17.1-23.9-13.7-33.8-4.5c3.6-16.6-12.4-10.6-19.5-4.1c-0.2-2-0.6-4-0.8-5.8
		c-4.8,1.3-7.9-0.2-11.9,4.2c-0.4-1-0.6-3.1-0.8-4.2c-5.1,0.1-9.2,1.5-12.6,5.7c-1.2-1.9-5-4.2-5.8-6.9c-5.2,2.7-9.1,7.8-13,11.5
		c-5.5-21.9-4.6-12.8-21.1-3.4c2.8-15.5-11.4-10.9-18.3-3.7c-6-10.6-15-3.4-21.3,3.7c-4.8-2.8-6.7-7.2-5.9-12.7
		c-3.2,4.5-5.5,9.4-7.1,14.5c-5.7-1-8.5-6.8-9.4-11.7c-7.1,1.5-11.2,6.7-16.8,11.4c0.4-2.1-0.4-5.5,0.4-8.1c-3,3-7.3,4.6-10,8.2
		c0-19.5-15.1-8-18.3,3c-0.7-4.1-4.5-7.6-6-10.4c-3.7,3.6-7.9,7-12.2,10.3c1.5-12.9-8.4-6.3-14.9-4c-3.4,1.1-4.7,7.9-8.9,7.8
		c-6-0.1-2.4-9.1-7.4-10c-11.2-1.9-24.3,15.1-36-3.6c-2.1,1.8-6.9,2.7-9.1,5.4c-5.1-11.8-12.5-8.1-21.2-2.7
		c0.1-2.4-2.3-7.4-1.9-10.2c-7.9,0.9-13.1,9-17.1,15.9c-2.6-6.7-11.8-2.9-18.1-7c-0.2,1.9-1.1,4-1.4,5.5c0.6-11-7.5-12.5-11.3-1.8
		c0.2-3.2-1.4-7.4-1.2-10.8c-4.9,3.3-7.9,7.9-11.9,11.8c-4.1-10.2-13.7-11.5-17.8-2.5c2.9-14.3-10.2-14.5-16.4-0.8
		c0.5-3.1-0.7-6.9-0.4-10c-5.2,1.7-8.6,7.8-11.9,12.6c-1.9-4.3-4.3-6-7-6.2c-2.7,0.2-5.1,1.9-7,6.2c-3.3-4.7-6.7-10.9-11.9-12.6
		c0.2,3.1-0.9,7-0.4,10c-6.2-13.8-19.3-13.5-16.4,0.8c-4.1-9.1-13.7-7.8-17.8,2.5c-4-3.9-7-8.5-11.9-11.8c0.2,3.5-1.4,7.7-1.2,10.8
		c-3.7-10.7-11.9-9.1-11.3,1.8c-0.2-1.5-1.2-3.6-1.4-5.5c-6.3,4-15.5,0.3-18.1,7c-4-6.9-9.2-15-17.1-15.9c0.4,2.8-1.9,7.8-1.9,10.2
		c-8.7-5.4-16.1-9.2-21.2,2.7c-2.2-2.7-7-3.6-9.1-5.4c-11.6,18.7-24.7,1.7-36,3.6c-5.1,0.9-1.5,9.9-7.4,10c-4.2,0.1-5.6-6.6-8.9-7.8
		c-6.6-2.3-16.4-8.9-14.9,4c-4.4-3.3-8.5-6.7-12.2-10.3c-1.5,2.8-5.2,6.4-6,10.4c-3.2-11-18.2-22.5-18.3-3c-2.7-3.5-7-5.2-10-8.2
		c0.8,2.6,0,6,0.4,8.1c-5.6-4.7-9.7-9.9-16.8-11.4c-0.9,4.9-3.7,10.7-9.4,11.7c-1.6-5.1-3.9-10-7.1-14.5c0.8,5.4-1.1,9.9-5.9,12.7
		c-6.2-7.2-15.3-14.3-21.3-3.7c-6.9-7.1-21.1-11.8-18.3,3.7c-16.5-9.4-15.5-18.5-21.1,3.4c-3.9-3.7-7.7-8.8-13-11.5
		c-0.8,2.7-4.6,5-5.8,6.9c-3.4-4.3-7.5-5.6-12.6-5.7c-0.2,1.1-0.4,3.2-0.8,4.2c-4-4.4-7.1-3-11.9-4.2c-0.1,1.8-0.6,3.9-0.8,5.8
		c-7.1-6.5-23.1-12.4-19.5,4.1c-9.9-9.3-35.5-12.6-33.8,4.5c-8-15.5-17.7-2.1-27.1-0.7c-10.9,1.6-17-9.8-28.7-7.7
		c0.1,2.2-0.6,5-0.4,7.2c-6.4-1.7-18.9-19.2-18-1.8c-4.1-7.3-19.4-18.8-21.4-5.7c-4.1-6.9-11.7-9.1-15.5-0.3
		c-4.4-7.3-22.3-14.3-17.1,0.4c-3.7-6.2-13-19.9-17.8-6c-9.9-12.8-12.1,3.2-18.7,3c-9.9-0.3-14.3-15.6-24.9-2
		c-1.3-11.9-13.9-9.5-18.3,0.4c-2.2-3.6-7.1-4.9-9.5-7.3c0,2.1-1,5-0.8,7.3c-2.3-5.4-5-5.8-10-7.3c-0.2,1.6-1.2,3.9-1.7,5.5
		c-3.4-12.5-14.1-3.8-19.2,1.7c0-2.5-2-5.7-2-8.7c-5.5-1.1-10,0.8-12.9,5.4c-0.6-2.8-4-6.3-4.8-8.8c-6,0.8-11.4,4.7-14.7,9.1
		c-2.8-14.6-24.4-16.3-30.7-3.4c-7.7-7-27.4-6.7-37-5.3c-0.1,1.8-0.3,3.5-0.4,5.3c-6-6.3-28.5-6.6-38.6-2.7c0.8,1.9,0.4,4.9,1.5,7.3
		c-4-5.8-10.9-8.1-18-7c-0.5,1.9-1.5,3.8-2,5.7c-5.5-1.8-11.9-3.7-17.3-1.5c0.6,1.1,1.2,2.1,2.1,3c-5.8-5.5-16.2-12.6-17.7,0
		c-8.5-3.7-15.6-5.4-23.2-10.2c-0.2,1.9-0.5,3.8-0.7,5.8c-6.5-1.3-11.6-7.8-16.7-1.8c-6.3-5.9-20.8-8.1-26.7-0.1
		c-4.9-11.5-14.3-6.2-17.6,3c-1.2-5-2.7-9.8-4.7-14.5c-10.9,12.1-32.5-11-43.6,1.7c-4.7-11.4-35.8-5.1-46.4-5c-2.9,0-9.4-3.7-13.6-4
		c-1.2-0.1-7.6,2.6-10.4,2.7c-10.6,0.6-16.2-2.3-26.8,4.1c-6-8.2-18.1-7.6-21.7,3.1C92.3-0.1,81.3,12,75.8,16.1
		c-4-9.8-14.8-9.4-21-1.8c-3-11.7-11.3-5.2-18.1-1.2c-0.2-2.7-2.9-6.2-3.1-8.8c-4.7,1-8.7,2.4-11.9,7c0-4.1-2.6-6.2-3.5-9.9
		C11.4,2,6,6.9,3.8,12.8c0.2-2-0.5-4.7-0.5-6.8C2.1,5.9,1.1,6,0,6.2v323.1h1248h1248V6.2C2494.9,6,2493.9,5.9,2492.7,6z"/>
	<g>
		<path class="st1" d="M2492.7,6c0,2.1-0.7,4.8-0.5,6.8c-2.2-5.9-7.6-10.9-14.5-11.4c-0.9,3.8-3.4,5.8-3.5,9.9
			c-3.2-4.5-7.3-5.9-11.9-7c-0.2,2.6-2.9,6.1-3.1,8.8c-6.8-4-15.1-10.5-18.1,1.2c-6.2-7.6-17-8-21,1.8c-5.5-4.1-16.5-16.2-20.3-3.3
			c-3.6-10.7-15.7-11.3-21.7-3.1c-10.6-6.4-16.1-3.5-26.8-4.1c-2.8-0.1-9.2-2.8-10.4-2.7c-4.2,0.3-10.6,4-13.6,4
			c-10.6-0.1-41.8-6.4-46.4,5c-11.1-12.6-32.7,10.4-43.6-1.7c-2,4.7-3.6,9.5-4.7,14.5c-3.4-9.2-12.7-14.6-17.6-3
			c-5.9-8.1-20.4-5.8-26.7,0.1c-5-6-10.2,0.6-16.7,1.8c-0.3-2-0.5-3.9-0.7-5.8c-7.6,4.8-14.7,6.6-23.2,10.2c-1.5-12.6-12-5.5-17.7,0
			c0.8-0.9,1.5-1.9,2.1-3c-5.3-2.2-11.8-0.3-17.3,1.5c-0.5-1.9-1.5-3.8-2-5.7c-7-1.1-13.9,1.2-18,7c1.1-2.3,0.8-5.4,1.5-7.3
			c-10.1-3.9-32.6-3.6-38.6,2.7c-0.1-1.8-0.3-3.6-0.4-5.3c-9.6-1.5-29.4-1.7-37,5.3c-6.3-12.9-27.9-11.2-30.7,3.4
			c-3.3-4.5-8.7-8.4-14.7-9.1c-0.7,2.5-4.2,5.9-4.8,8.8c-2.9-4.6-7.4-6.5-12.9-5.4c0,3-2,6.2-2,8.7c-5.1-5.6-15.8-14.2-19.2-1.7
			c-0.5-1.6-1.5-3.9-1.7-5.5c-5,1.5-7.7,2-10,7.3c0.2-2.4-0.8-5.2-0.8-7.3c-2.4,2.4-7.3,3.7-9.5,7.3c-4.4-9.8-17-12.2-18.3-0.4
			c-10.6-13.6-14.9,1.7-24.9,2c-6.6,0.2-8.9-15.9-18.7-3c-4.8-13.9-14.1-0.2-17.8,6c5.3-14.7-12.7-7.8-17.1-0.4
			c-3.9-8.7-11.4-6.6-15.5,0.3c-2-13.1-17.3-1.5-21.4,5.7c0.9-17.5-11.6,0-18,1.8c0.3-2.2-0.5-5-0.4-7.2
			c-11.7-2.1-17.8,9.2-28.7,7.7c-9.4-1.3-19.1-14.8-27.1,0.7c1.6-17.1-23.9-13.7-33.8-4.5c3.6-16.6-12.4-10.6-19.5-4.1
			c-0.2-2-0.6-4-0.8-5.8c-4.8,1.3-7.9-0.2-11.9,4.2c-0.4-1-0.6-3.1-0.8-4.2c-5.1,0.1-9.2,1.5-12.6,5.7c-1.2-1.9-5-4.2-5.8-6.9
			c-5.2,2.7-9.1,7.8-13,11.5c-5.5-21.9-4.6-12.8-21.1-3.4c2.8-15.5-11.4-10.9-18.3-3.7c-6-10.6-15-3.4-21.3,3.7
			c-4.8-2.8-6.7-7.2-5.9-12.7c-3.2,4.5-5.5,9.4-7.1,14.5c-5.7-1-8.5-6.8-9.4-11.7c-7.1,1.5-11.2,6.7-16.8,11.4
			c0.4-2.1-0.4-5.5,0.4-8.1c-3,3-7.3,4.6-10,8.2c0-19.5-15.1-8-18.3,3c-0.7-4.1-4.5-7.6-6-10.4c-3.7,3.6-7.9,7-12.2,10.3
			c1.5-12.9-8.4-6.3-14.9-4c-3.4,1.1-4.7,7.9-8.9,7.8c-6-0.1-2.4-9.1-7.4-10c-11.2-1.9-24.3,15.1-36-3.6c-2.1,1.8-6.9,2.7-9.1,5.4
			c-5.1-11.8-12.5-8.1-21.2-2.7c0.1-2.4-2.3-7.4-1.9-10.2c-7.9,0.9-13.1,9-17.1,15.9c-2.6-6.7-11.8-2.9-18.1-7
			c-0.2,1.9-1.1,4-1.4,5.5c0.6-11-7.5-12.5-11.3-1.8c0.2-3.2-1.4-7.4-1.2-10.8c-4.9,3.3-7.9,7.9-11.9,11.8
			c-4.1-10.2-13.7-11.5-17.8-2.5c2.9-14.3-10.2-14.5-16.4-0.8c0.5-3.1-0.7-6.9-0.4-10c-5.2,1.7-8.6,7.8-11.9,12.6
			c-1.9-4.3-4.3-6-7-6.2c-2.7,0.2-5.1,1.9-7,6.2c-3.3-4.7-6.7-10.9-11.9-12.6c0.2,3.1-0.9,7-0.4,10c-6.2-13.8-19.3-13.5-16.4,0.8
			c-4.1-9.1-13.7-7.8-17.8,2.5c-4-3.9-7-8.5-11.9-11.8c0.2,3.5-1.4,7.7-1.2,10.8c-3.7-10.7-11.9-9.1-11.3,1.8
			c-0.2-1.5-1.2-3.6-1.4-5.5c-6.3,4-15.5,0.3-18.1,7c-4-6.9-9.2-15-17.1-15.9c0.4,2.8-1.9,7.8-1.9,10.2c-8.7-5.4-16.1-9.2-21.2,2.7
			c-2.2-2.7-7-3.6-9.1-5.4c-11.6,18.7-24.7,1.7-36,3.6c-5.1,0.9-1.5,9.9-7.4,10c-4.2,0.1-5.6-6.6-8.9-7.8c-6.6-2.3-16.4-8.9-14.9,4
			c-4.4-3.3-8.5-6.7-12.2-10.3c-1.5,2.8-5.2,6.4-6,10.4c-3.2-11-18.2-22.5-18.3-3c-2.7-3.5-7-5.2-10-8.2c0.8,2.6,0,6,0.4,8.1
			c-5.6-4.7-9.7-9.9-16.8-11.4c-0.9,4.9-3.7,10.7-9.4,11.7c-1.6-5.1-3.9-10-7.1-14.5c0.8,5.4-1.1,9.9-5.9,12.7
			c-6.2-7.2-15.3-14.3-21.3-3.7c-6.9-7.1-21.1-11.8-18.3,3.7c-16.5-9.4-15.5-18.5-21.1,3.4c-3.9-3.7-7.7-8.8-13-11.5
			c-0.8,2.7-4.6,5-5.8,6.9c-3.4-4.3-7.5-5.6-12.6-5.7c-0.2,1.1-0.4,3.2-0.8,4.2c-4-4.4-7.1-3-11.9-4.2c-0.1,1.8-0.6,3.9-0.8,5.8
			c-7.1-6.5-23.1-12.4-19.5,4.1c-9.9-9.3-35.5-12.6-33.8,4.5c-8-15.5-17.7-2.1-27.1-0.7c-10.9,1.6-17-9.8-28.7-7.7
			c0.1,2.2-0.6,5-0.4,7.2c-6.4-1.7-18.9-19.2-18-1.8c-4.1-7.3-19.4-18.8-21.4-5.7c-4.1-6.9-11.7-9.1-15.5-0.3
			c-4.4-7.3-22.3-14.3-17.1,0.4c-3.7-6.2-13-19.9-17.8-6c-9.9-12.8-12.1,3.2-18.7,3c-9.9-0.3-14.3-15.6-24.9-2
			c-1.3-11.9-13.9-9.5-18.3,0.4c-2.2-3.6-7.1-4.9-9.5-7.3c0,2.1-1,5-0.8,7.3c-2.3-5.4-5-5.8-10-7.3c-0.2,1.6-1.2,3.9-1.7,5.5
			c-3.4-12.5-14.1-3.8-19.2,1.7c0-2.5-2-5.7-2-8.7c-5.5-1.1-10,0.8-12.9,5.4c-0.6-2.8-4-6.3-4.8-8.8c-6,0.8-11.4,4.7-14.7,9.1
			c-2.8-14.6-24.4-16.3-30.7-3.4c-7.7-7-27.4-6.7-37-5.3c-0.1,1.8-0.3,3.5-0.4,5.3c-6-6.3-28.5-6.6-38.6-2.7
			c0.8,1.9,0.4,4.9,1.5,7.3c-4-5.8-10.9-8.1-18-7c-0.5,1.9-1.5,3.8-2,5.7c-5.5-1.8-11.9-3.7-17.3-1.5c0.6,1.1,1.2,2.1,2.1,3
			c-5.8-5.5-16.2-12.6-17.7,0c-8.5-3.7-15.6-5.4-23.2-10.2c-0.2,1.9-0.5,3.8-0.7,5.8c-6.5-1.3-11.6-7.8-16.7-1.8
			c-6.3-5.9-20.8-8.1-26.7-0.1c-4.9-11.5-14.3-6.2-17.6,3c-1.2-5-2.7-9.8-4.7-14.5c-10.9,12.1-32.5-11-43.6,1.7
			c-4.7-11.4-35.8-5.1-46.4-5c-2.9,0-9.4-3.7-13.6-4c-1.2-0.1-7.6,2.6-10.4,2.7c-10.6,0.6-16.2-2.3-26.8,4.1
			c-6-8.2-18.1-7.6-21.7,3.1C92.3-0.1,81.3,12,75.8,16.1c-4-9.8-14.8-9.4-21-1.8c-3-11.7-11.3-5.2-18.1-1.2
			c-0.2-2.7-2.9-6.2-3.1-8.8c-4.7,1-8.7,2.4-11.9,7c0-4.1-2.6-6.2-3.5-9.9C11.4,2,6,6.9,3.8,12.8c0.2-2-0.5-4.7-0.5-6.8
			C2.1,5.9,1.1,6,0,6.2v49.5c11.8,6.6,27.7,5.4,38.2-3.2c-6.7,13.9,1.6,32.9,16.3,37.4c14.8,4.5,32.2-6.6,34.4-21.9
			c6,15.8,21.6,28.5,38.5,27.9s32.4-17.4,28.9-33.9C164,75.8,181.7,83.3,197,79c15.3-4.3,26.6-19.9,26-35.7
			c8.6,25.2,48,31.9,64.5,11.1c-2.3,13.8,8.1,28.4,21.9,30.8c13.8,2.4,28.4-7.9,30.9-21.6c-1.9,13.6,8.2,27.8,21.7,30.5
			s28.3-6.6,31.7-20c3.6,15.2,20.2,26.1,35.6,23.3s27.2-18.7,25.3-34.2C464,70.4,474,78,485.8,79.4c11.8,1.4,25.5-6.4,26.1-18.2
			c20,29.6,70.4,30.3,91.3,1.4c15.7,24.6,52,33.1,77,18.1c4.2,16.8,18.6,30.7,35.7,34c17,3.4,35.7-3.9,45.9-17.9
			c7.3,15.6,26,24.9,42.9,21.3c16.8-3.6,30.1-19.7,30.5-36.9c14,5.1,28.7,10.4,43.6,8.7c14.9-1.7,29.8-12.5,30.9-27.4
			c19.8,19.8,57.1,17.2,74-5.1c15,32.5,64.3,41.9,90.2,17.2c-4.8,17.6,15.7,33.7,33.8,32s33.1-14.5,46.6-26.7
			c-0.3,14.3,9.7,28.1,23.4,32.4s29.7-1.5,37.6-13.4c11.2,1.8,22.4-0.1,32.8-4.4c10.4,4.4,21.7,6.3,32.8,4.4
			c7.9,11.9,24,17.7,37.6,13.4s23.6-18.1,23.4-32.4c13.5,12.2,28.4,25,46.6,26.7s38.6-14.4,33.8-32c25.9,24.7,75.2,15.3,90.2-17.2
			c16.9,22.3,54.2,24.9,74,5.1c1.1,14.9,16.1,25.8,30.9,27.4c14.9,1.7,29.5-3.5,43.6-8.7c0.3,17.2,13.6,33.3,30.5,36.9
			c16.8,3.6,35.6-5.7,42.9-21.3c10.3,14,28.9,21.2,45.9,17.9c17-3.4,31.5-17.2,35.7-34c25,15,61.3,6.5,77-18.1
			c20.8,29,71.3,28.2,91.3-1.4c0.5,11.9,14.2,19.6,26.1,18.2c11.8-1.4,21.9-8.9,31.3-16.2c-1.9,15.5,9.9,31.5,25.3,34.2
			c15.4,2.8,32-8.1,35.6-23.3c3.4,13.3,18.2,22.6,31.7,20s23.6-16.9,21.7-30.5c2.5,13.7,17.2,24,30.9,21.6
			c13.8-2.4,24.1-17,21.9-30.8c16.5,20.9,55.9,14.1,64.5-11.1c-0.6,15.9,10.7,31.5,26,35.7s33.1-3.2,40.7-17.1
			c-3.6,16.5,12,33.3,28.9,33.9c16.9,0.6,32.5-12.1,38.5-27.9c2.2,15.3,19.6,26.4,34.4,21.9c14.8-4.5,23.1-23.5,16.3-37.4
			c10.5,8.6,26.4,9.8,38.2,3.2V6.2C2494.9,6,2493.9,5.9,2492.7,6z"/>
	</g>
	<g>
		<path class="st1" d="M183.5,142.5c7.5,2.8,15,6.1,20.6,11.8c5.6,5.7,8.9,14.3,6.3,21.9c-2.1,6.3-7.9,10.8-14.1,13
			c-6.3,2.2-13,2.3-19.7,2.2c-25.1-0.6-51.7-6.3-69.3-24.3c-2.1-2.2-4.2-4.6-5.3-7.4c0,0,0,0,0,0c-2.8-7.2,1.2-18.7,6.9-23.7
			c5.7-5,11.9-4.5,19.9-4.4C147.6,131.8,166.1,136,183.5,142.5z"/>
	</g>
	<g>
		<path class="st1" d="M362.4,185.6c-0.8,1.7-2.3,2.9-3.8,4c-7.5,5.6-16.8,9.2-26.2,8.9c-0.8,0-1.6-0.1-2.4-0.1
			c-10.5-1-19.8-6.8-28.7-12.4c0,0,0,0,0,0c-22.2-14-6.2-27.1,12.8-28.8C325.6,156.2,373.2,163.9,362.4,185.6z"/>
	</g>
	<g>
		<path class="st1" d="M267,114.5C267,114.5,267,114.5,267,114.5c4.4,1.7,9.6,5.4,8.2,9.9c-0.6,2.1-2.6,3.5-4.5,4.5
			c-7,3.4-15.4,2.5-22.9,0.4c-3.9-1.1-7.9-2.6-10.9-5.4c-6.2-5.8-4.8-16.1,3.9-17.8C247.1,104.9,261.3,112.3,267,114.5z"/>
	</g>
	<g>
		<path class="st1" d="M560.7,172.3c7.2-2.4,15.3-7.5,14.8-15.1c-0.2-3.3-2.1-6.2-4.2-8.8c0,0,0,0,0,0c-14.9-18.6-68.1-40.4-83-10.2
			C470.8,173.8,542.5,178.5,560.7,172.3z"/>
	</g>
	<g>
		<path class="st1" d="M664.3,125C664.3,125,664.3,125,664.3,125c1.5,1.7,2.8,3.8,3,6.1c0.2,3.1-1.8,6-4.4,7.6
			c-2.6,1.6-5.8,2.2-8.8,2.4c-10.2,0.7-20.7-2.1-29.2-7.9c-3.2-2.2-6.4-5.1-6.9-8.9c-0.5-3.6,1.6-7.3,4.6-9.3
			C632.7,108,656.8,116.6,664.3,125z"/>
	</g>
	<g>
		<path class="st1" d="M853.4,207.9C853.4,207.9,853.4,207.9,853.4,207.9c0.3,1.2,0.5,2.6,0,3.8c-0.5,1.2-1.5,2-2.5,2.8
			c-13.6,10.4-32.1,13.3-48.7,9.5c-16.9-3.9-73.4-40.3-33.9-51.5C795.7,164.6,846.5,176.1,853.4,207.9z"/>
	</g>
	<g>
		<path class="st1" d="M999.4,109.9C999.4,109.9,999.4,109.9,999.4,109.9c4.6,1.7,9.6,3.8,12,8.1c1.3,2.3,1.6,4.9,1.8,7.5
			c0.4,5.5,0.1,11.4-3.1,15.9c-3.5,4.8-9.6,6.9-15.4,8.1c-18.9,3.8-76.1-3.1-72.1-33C926.6,86.6,984.2,104.2,999.4,109.9z"/>
	</g>
	<g>
		<path class="st1" d="M1124.1,178.1C1124.1,178.1,1124.1,178.1,1124.1,178.1c-0.2,1.3-0.4,2.7-1.3,3.7c-0.8,1-2.1,1.4-3.3,1.8
			c-11.5,3.6-29,4.5-39.6-2.4c-8.8-5.7-9.4-17.8-0.2-24.1c7.1-4.8,18-2.1,25.8-0.7C1119.2,158.8,1126.5,162.7,1124.1,178.1z"/>
	</g>
	<path d="M2492.7,4.6c-0.8,0-1.4,0.6-1.4,1.4c0,0.6-0.1,1.2-0.1,1.9c-3-4.3-7.4-7.1-13-7.9c-0.8-0.1-1.5,0.2-1.8,1
		c-0.9,2.7-2.1,4.8-2.9,7.3c-3-2.9-6.5-4.4-10.7-5.4c-0.7-0.2-1.6,0.2-1.8,1c-0.6,2.4-1.8,4.6-2.6,6.9c-6.9-4-14-7.4-17.8,0.8
		c-6.7-6-16-5.9-20.9,2.2c-6.3-5.1-15-12.5-19.8-4.4c-2.1-3.5-5.2-6.1-9.6-6.7c-2.2-0.3-4.4,0-6.4,0.8c-1.9,0.7-4,3.5-5.7,3.9
		c-2.4,0.6-7.1-2.5-9.5-3c-3-0.5-6.1-0.4-9.2-0.3c-4.5,0.1-8.4,0.2-12.7-1.1c-1.9-0.6-3.9-1.6-6-1.6c-6.2,0-11.1,4.2-17.5,3.7
		c-5.8-0.4-11.6-1.2-17.4-1.5c-7.5-0.4-20.2-1.3-25.3,5.9c-12.8-10.3-30.8,10.9-42.3-0.4c-0.8-0.8-2-0.3-2.4,0.6
		c-1.5,3.6-2.7,7.2-3.8,11c-4.6-7.1-12.4-9.8-17.5-1.5c-7.1-6.6-18.9-5-26.4,0.6c-5.2-4-9.9-0.2-15.5,1.8c-0.2-1.3-0.3-2.6-0.5-3.9
		c-0.1-1-1.1-1.9-2.2-1.3c-6.7,4.1-14.1,6.5-21.4,9.5c-2.4-8.9-9.9-6.5-16-2.2c-0.1-0.1-0.2-0.1-0.4-0.2c-5.8-1.8-11.2-0.6-16.7,1.1
		c-0.5-1.4-1-2.9-1.5-4.3c-0.2-0.7-0.7-1-1.4-1.1c-5.9-0.6-11.2,0.5-15.5,3.9c0.1-0.8,0.3-1.6,0.5-2.4c0.2-0.8-0.3-1.5-1-1.8
		c-10.1-3.6-27.8-5.2-37.8,1.3c-0.1-0.9-0.1-1.7-0.2-2.6c0-0.6-0.4-1.3-1.1-1.4c-11.5-1.6-26.9-2.4-37,4.6
		c-7.7-11.5-26.5-10.3-31.7,2.6c-3.7-4-8.2-6.6-13.7-7.7c-0.6-0.1-1.4,0.1-1.6,0.7c-1,2.4-2.7,4.5-3.9,6.8
		c-3.3-3.5-7.3-4.9-12.6-4.2c-0.9,0.1-1.4,0.6-1.5,1.5c-0.2,2-0.9,3.9-1.4,5.8c-5.8-5.4-13.7-9.5-18.1-2.7c-0.2-0.7-0.4-1.3-0.6-2
		c-0.2-0.7-1-1.2-1.8-1c-3.7,1.1-6.4,2.2-8.6,4.6c-0.1-1-0.3-2.1-0.4-3.2c-0.1-1.3-1.5-1.9-2.5-1c-2.8,2.2-5.8,3.5-8.2,5.9
		c-5.1-7.7-16-10.5-19.3-0.9c-2.6-2.7-5.7-4.8-9.7-3.8c-4.9,1.2-9.1,8-14.4,7.3c-4.3-0.6-5.8-6.1-9.7-7.6c-3.5-1.3-6.4,0.9-8.7,3.4
		c-4.6-8.3-11.2-3.3-16,3c-1.3-7.3-13.4-3.2-19,2.7c-4.2-6-10.5-5.3-15.1-0.2c-3.8-8.9-14.8-1.7-20.6,4.7c-0.4-2.8-1.5-5.3-4.9-5
		c-5,0.5-8.6,6-13,8.5c-0.1-1.6-0.3-3.3-0.3-4.9c0-0.9-0.7-1.4-1.4-1.4c-5.8-0.7-10.3,1.2-15.4,3.8c-7,3.7-12.2,5-19.7,1.4
		c-8.1-4-14.3-5.9-19.6,0.4c-2.7-13.5-22.9-9.9-33.2-3.4c0.2-4.1-0.8-8.1-5.6-8.9c-5-0.9-10.5,2-14.6,5.2c-0.1-1-0.3-2.1-0.4-3.1
		c-0.1-1-0.8-1.6-1.8-1.4c-4.2,0.9-7.4,0.9-10.6,3c-0.1-0.7-0.2-1.3-0.3-2c-0.1-0.6-0.8-1.1-1.4-1.1c-5.1,0.3-9.1,1.7-12.6,5.1
		c-1.6-1.8-3.5-3.3-4.6-5.5c-0.3-0.7-1.3-0.9-2-0.5c-4.4,2.6-7.8,6.2-11.4,9.8c-0.9-4.5-2.4-11.7-6.6-12c-1.8-0.1-3.5,1.4-4.8,2.4
		c-3,2.2-5.8,4.4-8.9,6.4c0.1-4-0.9-8-5.5-8.9c-5-1-10.5,2.4-14.3,5.8c-2.8-3.6-6.3-5.6-11.1-4c-2.6,0.9-4.9,2.6-6.9,4.4
		c-1.8,1.5-2.3,2.9-4.3,2.6c-3.8-0.5-3.8-7.1-3.5-9.8c0.1-1.5-2-1.8-2.7-0.7c-2.8,4.2-5,8.6-6.7,13.4c-4.3-1.8-6.1-5.8-7.1-10.3
		c-0.2-0.8-1.1-1.2-1.8-1c-6.1,1.6-10.4,5.5-14.9,9.5c0-1.5,0-3,0.2-4.4c0.2-1.4-1.3-2.4-2.4-1.4c-2.5,2.2-5.3,3.9-7.8,6
		c-0.6-4.7-2.5-9.7-8.2-8.6c-5.1,1-9,6.1-11.3,11c-1.4-2.5-3.1-4.8-4.7-7.3c-0.5-0.8-1.6-0.9-2.3-0.3c-3.1,3-6.4,5.7-9.7,8.4
		c-0.3-4-2.3-6.9-7.3-6c-3.1,0.6-6.9,2.1-9.6,3.6c-1.2,0.7-1.9,1.3-2.9,2.3c-2.1,2.2-1.8,4.3-5.5,3.5c-3.7-0.9-2.2-2.4-3.6-5.1
		c-0.5-0.9-0.9-1.6-1.7-2.2c-2.1-1.4-5-1-7.3-0.6c-4,0.8-7.7,2.7-11.5,3.9c-8,2.4-13.4-0.2-18-7c-0.4-0.6-1.3-1-2-0.5
		c-2.6,1.7-5.4,2.7-7.9,4.5c-5.1-9-12.5-7.4-20.6-2.8c-0.6-2.6-1.5-5.2-1.5-7.9c0-1-0.9-1.6-1.8-1.4c-8,1.5-12.8,8-16.8,14.6
		c-4.2-4.6-11.8-2.7-17.3-5.6c-0.5-0.3-1.2-0.2-1.7,0.1c-0.8-2-2.2-3.6-4.6-3.9c-2.8-0.3-4.8,1.5-6.3,3.7c-0.3-2-0.6-3.9-0.6-5.9
		c0-1-1.3-1.9-2.2-1.3c-4.1,3-7.3,6.9-10.8,10.5c-4.3-7.7-11.4-8.8-16.3-4.3c0-3.4-1.2-6.5-4.7-7.7c-4.9-1.7-9.3,2.1-12.3,6.3
		c-0.1-1.7-0.3-3.3-0.3-5c0-1.2-1.2-1.7-2.2-1.3c-5,2.2-8.1,6.7-11,11.1c-2.1-3.1-4.5-4.3-7-4.5c-2.6,0.1-5,1.4-7,4.5
		c-3-4.4-6-8.9-11-11.1c-1-0.4-2.2,0.1-2.2,1.3c0,1.7-0.2,3.4-0.3,5c-2.9-4.1-7.3-8-12.3-6.3c-3.5,1.2-4.7,4.3-4.7,7.7
		c-4.9-4.4-12-3.4-16.3,4.3c-3.5-3.7-6.7-7.5-10.8-10.5c-0.9-0.7-2.2,0.3-2.2,1.3c0,2-0.4,3.9-0.6,5.9c-1.5-2.2-3.5-4-6.3-3.7
		c-2.4,0.2-3.8,1.8-4.6,3.9c-0.5-0.3-1.1-0.4-1.7-0.1c-5.4,2.9-13.1,1-17.3,5.6c-4-6.6-8.8-13.2-16.8-14.6c-0.9-0.2-1.8,0.4-1.8,1.4
		c0,2.7-0.9,5.3-1.5,7.9c-8.1-4.7-15.5-6.3-20.6,2.8c-2.5-1.8-5.3-2.7-7.9-4.5c-0.7-0.5-1.6-0.1-2,0.5c-4.6,6.8-10,9.4-18,7
		c-3.9-1.2-7.5-3.1-11.5-3.9c-2.3-0.4-5.3-0.9-7.3,0.6c-0.8,0.6-1.3,1.3-1.7,2.2c-1.4,2.7,0.1,4.2-3.6,5.1c-3.6,0.9-3.4-1.3-5.5-3.5
		c-1-1-1.7-1.6-2.9-2.3c-2.8-1.5-6.5-3-9.6-3.6c-5.1-0.9-7,1.9-7.3,6c-3.4-2.7-6.6-5.4-9.7-8.4c-0.7-0.6-1.8-0.5-2.3,0.3
		c-1.5,2.5-3.3,4.8-4.7,7.3c-2.3-4.9-6.2-10-11.3-11c-5.7-1.1-7.6,3.9-8.2,8.6c-2.5-2.1-5.3-3.8-7.8-6c-1.1-1-2.6,0-2.4,1.4
		c0.2,1.5,0.2,3,0.2,4.4c-4.5-4-8.8-7.9-14.9-9.5c-0.7-0.2-1.6,0.2-1.8,1c-1,4.4-2.8,8.5-7.1,10.3c-1.7-4.7-3.9-9.2-6.7-13.4
		c-0.7-1.1-2.8-0.8-2.7,0.7c0.2,2.7,0.3,9.3-3.5,9.8c-2.1,0.3-2.6-1.1-4.3-2.6c-2-1.8-4.3-3.5-6.9-4.4c-4.8-1.6-8.4,0.4-11.1,4
		c-3.8-3.4-9.2-6.8-14.3-5.8c-4.6,0.9-5.6,4.9-5.5,8.9c-3.1-2-5.9-4.2-8.9-6.4c-1.3-1-3-2.5-4.8-2.4c-4.2,0.3-5.7,7.5-6.6,12
		c-3.5-3.6-7-7.2-11.4-9.8c-0.6-0.4-1.6-0.2-2,0.5c-1.1,2.2-3,3.8-4.6,5.5c-3.5-3.4-7.5-4.8-12.6-5.1c-0.6,0-1.3,0.5-1.4,1.1
		c-0.1,0.7-0.2,1.4-0.3,2c-3.2-2.1-6.4-2.2-10.6-3c-1-0.2-1.7,0.4-1.8,1.4c-0.1,1-0.3,2-0.4,3.1c-4.1-3.1-9.6-6.1-14.6-5.2
		c-4.8,0.9-5.8,4.8-5.6,8.9c-10.3-6.5-30.5-10.1-33.2,3.4c-5.3-6.3-11.5-4.4-19.6-0.4c-7.4,3.7-12.6,2.3-19.7-1.4
		c-5-2.7-9.6-4.5-15.4-3.8c-0.8,0.1-1.4,0.6-1.4,1.4c0,1.7-0.2,3.3-0.3,4.9c-4.4-2.6-8-8.1-13-8.5c-3.4-0.3-4.6,2.2-4.9,5
		c-5.8-6.5-16.8-13.7-20.6-4.7c-4.7-5.1-10.9-5.8-15.1,0.2c-5.6-5.9-17.7-10-19-2.7c-4.8-6.2-11.4-11.3-16-3
		c-2.3-2.5-5.1-4.7-8.7-3.4c-4,1.4-5.4,7-9.7,7.6c-5.4,0.7-9.5-6.1-14.4-7.3c-4-1-7.1,1.1-9.7,3.8c-3.3-9.5-14.2-6.7-19.3,0.9
		c-2.5-2.4-5.5-3.7-8.2-5.9c-1-0.8-2.3-0.3-2.5,1c-0.1,1.1-0.3,2.1-0.4,3.2c-2.2-2.4-4.9-3.4-8.6-4.6c-0.7-0.2-1.6,0.3-1.8,1
		c-0.2,0.7-0.4,1.4-0.6,2c-4.4-6.8-12.3-2.6-18.1,2.7c-0.5-1.9-1.2-3.8-1.4-5.8c-0.1-0.9-0.6-1.3-1.5-1.5c-5.2-0.7-9.2,0.7-12.6,4.2
		c-1.2-2.3-2.8-4.4-3.9-6.8c-0.3-0.6-1.1-0.8-1.6-0.7c-5.5,1-10,3.7-13.7,7.7c-5.2-12.9-24-14.1-31.7-2.6c-10.1-7-25.5-6.2-37-4.6
		c-0.7,0.1-1,0.8-1.1,1.4c-0.1,0.9-0.1,1.7-0.2,2.6c-10-6.5-27.7-4.9-37.8-1.3c-0.8,0.3-1.2,1-1,1.8c0.2,0.8,0.3,1.6,0.5,2.4
		c-4.3-3.4-9.6-4.6-15.5-3.9c-0.7,0.1-1.2,0.4-1.4,1.1c-0.5,1.5-1,2.9-1.5,4.3c-5.6-1.7-11-2.9-16.7-1.1c-0.1,0-0.3,0.1-0.4,0.2
		c-6.1-4.4-13.6-6.8-16,2.2c-7.2-3-14.6-5.4-21.4-9.5c-1-0.6-2.1,0.2-2.2,1.3c-0.2,1.3-0.3,2.6-0.5,3.9c-5.6-2-10.3-5.8-15.5-1.8
		c-7.5-5.6-19.3-7.2-26.4-0.6c-5.1-8.3-12.9-5.6-17.5,1.5c-1.1-3.7-2.3-7.3-3.8-11c-0.4-1-1.6-1.5-2.4-0.6
		c-11.5,11.4-29.5-9.8-42.3,0.4c-5.1-7.1-17.7-6.3-25.3-5.9c-5.8,0.3-11.6,1-17.4,1.5c-6.4,0.5-11.3-3.7-17.5-3.7c-2,0-4.1,1-6,1.6
		c-4.3,1.3-8.2,1.2-12.7,1.1c-3.1-0.1-6.1-0.2-9.2,0.3c-2.5,0.4-7.1,3.5-9.5,3c-1.7-0.4-3.8-3.2-5.7-3.9c-2.1-0.8-4.2-1.1-6.4-0.8
		c-4.4,0.6-7.5,3.2-9.6,6.7c-4.9-8-13.5-0.7-19.8,4.4c-4.8-8.1-14.1-8.2-20.9-2.2c-3.8-8.2-10.9-4.9-17.8-0.8
		c-0.8-2.3-2-4.5-2.6-6.9c-0.2-0.8-1-1.2-1.8-1C29,4,25.5,5.5,22.5,8.3c-0.8-2.5-2-4.6-2.9-7.3c-0.3-0.8-1-1.1-1.8-1
		c-5.6,0.8-9.9,3.6-13,7.9C4.8,7.3,4.8,6.7,4.7,6c0-0.8-0.6-1.4-1.5-1.4C2.1,4.6,1,4.6,0,4.8v3c0.6-0.2,1.3-0.3,1.9-0.3
		c0.2,1.8,0.4,3.5,0.4,5.3c0,1.3,2.1,2.1,2.7,0.7C7.4,8,11.5,4.3,17.3,3.1c1.1,2.7,2.6,5.3,2.9,8.3c0.1,1.1,1.6,2.1,2.5,1
		c2.7-3.4,5.9-5.1,9.9-6.2c0.8,2.5,2.1,4.8,2.7,7.4c0.2,0.9,1.4,1.3,2.1,0.9c5.5-3.3,13-9.1,16,0.3c0.3,1,1.7,1.5,2.4,0.6
		c5.8-6.5,14.6-7.1,18.7,1.5c0.4,0.9,1.6,0.8,2.3,0.3C81.5,13.5,91,3,94.7,13.2c0.5,1.4,2.3,1.3,2.8,0c3.6-9,13.4-9.6,19.3-2.4
		c0.4,0.5,1.2,0.5,1.8,0.2c6-3.3,11.3-4.1,17.9-3.9c4.4,0.1,8.4,0.3,12.7-0.9c4.8-1.4,7-1.8,11.8,0c3.1,1.1,5.7,2.2,8.9,2.2
		c7.2,0,14.5-1.4,21.7-1.7c6.7-0.2,18.6-1.2,22.1,6c0.4,0.8,1.7,0.9,2.3,0.3c11.5-11.7,29.3,9.1,42-0.3c1.6,4.1,2.9,8.2,3.9,12.5
		c0.4,1.5,2.3,1.2,2.8,0c3.1-7.6,10.4-12,15-2.7c0.4,0.8,1.7,1,2.3,0.3c6.1-7.3,18-5.6,24.7,0.1c0.6,0.5,1.4,0.6,2.1,0
		c4.4-4.2,10.7,1,15.3,2.2c1,0.3,1.7-0.5,1.8-1.4c0.1-1.2,0.3-2.3,0.4-3.5c6.9,3.8,14.3,6.3,21.6,9.3c0.7,0.3,1.7-0.3,1.8-1
		c1.8-10.5,10.7-3.6,15.3,0.7c1.4,1.3,3.2-0.6,2.1-2.1c-0.2-0.3-0.5-0.7-0.7-1c4.9-0.9,9.7,0.4,14.5,2c0.8,0.2,1.5-0.3,1.8-1
		c1.3-4,2-5.4,6.6-4.7c4.7,0.7,8,2.9,10.9,6.6c0.9,1.1,2.9-0.1,2.4-1.4c-0.6-1.9-0.9-3.9-1.2-5.9c10.1-3.2,27.9-4.6,35.9,2.8
		c1,0.9,2.4,0.2,2.5-1c0.5-6.7,10.2-4.9,15.4-4.6c6.6,0.3,14.2,1.2,19.6,5.6c0.7,0.6,1.8,0.6,2.3-0.3c6.3-11.5,24.8-10.3,28,3.1
		c0.2,1,1.7,1.5,2.4,0.6c2.3-2.8,7.2-8.4,11.1-8.1c3,0.2,4.9,4.1,5.9,7.1c0.4,1.2,1.9,1.4,2.7,0.3c2.9-3.9,6.1-5.2,10.4-4.8
		c0.5,2.6,1.5,5.1,1.9,7.8c0.2,1.1,1.7,1.4,2.4,0.6c4.4-4.7,13.4-12.5,16.8-2.4c0.5,1.4,2.3,1.4,2.8,0c0.5-1.4,0.9-2.7,1.3-4.1
		c3.5,1.2,5.9,2.6,7.8,6.2c0.7,1.3,2.7,0.6,2.7-0.7c0-1.6,0.3-3.2,0.5-4.8c2.6,1.7,5.4,3.2,7.4,5.8c0.6,0.7,1.9,0.5,2.3-0.3
		c3.6-7.1,13.8-11.7,15.7-0.7c0.2,1,1.8,1.4,2.4,0.6c10-11.9,13.4,2.9,23.8,2.4c8.2-0.4,9.2-13.7,17.7-3.5c0.8,0.9,2.1,0.3,2.4-0.6
		c4.4-10.9,11.9,1.1,15.1,6.4c0.8,1.4,3.2,0.5,2.7-1.1c-3.9-12.2,11-4.4,14.4,0.7c0.6,0.9,2,1,2.5,0c3.8-7.2,9.4-5,13,0.3
		c0.6,1,2.4,1,2.7-0.3c2.5-11.7,15.7,1.3,18.7,6.1c0.7,1.2,2.7,0.7,2.7-0.7c-0.1-3.2-0.2-6.6,3.7-5.3c1.9,0.6,3.7,2.7,5.2,3.9
		c2.3,1.8,4.5,3.7,7.3,4.6c0.9,0.3,1.9-0.5,1.8-1.4c0-2,0.2-3.9,0.3-5.8c9.4-0.3,16.1,8.1,25.5,7.9c10.7-0.2,19.7-13.9,27.6-0.1
		c0.7,1.2,2.8,0.7,2.7-0.7c-0.9-17.1,23.7-10.2,31.4-3.5c1.1,1,2.7,0,2.4-1.4c-2.5-13.7,11-8,17.1-2.7c1,0.9,2.3,0.2,2.5-1
		c0.2-1.4,0.4-2.8,0.6-4.1c3.6,0.6,6.7,0.8,9.7,3.6c0.8,0.7,2.1,0.4,2.4-0.6c0.7-2.7,0.3-3.3,3.5-2.7c3.1,0.6,5.4,2.5,7.5,4.8
		c0.5,0.5,1.6,0.6,2.1,0c1.7-2.1,3.8-3.7,5.3-5.9c4.4,2.9,7.7,6.8,11.5,10.5c0.8,0.8,2.2,0.4,2.4-0.6c0.8-3.1,1.3-6.7,2.7-9.7
		c1.1-2.4,1.2-2.9,3.6-1.8c4.4,1.9,8.4,6.5,12.6,8.9c1.2,0.7,2.3-0.5,2.1-1.6c-1.9-13,10.3-7.8,15.8-2.3c0.7,0.7,1.8,0.5,2.3-0.3
		c5.8-9,14-1.6,19,4c0.4,0.4,1.2,0.6,1.8,0.2c3.6-2.5,5.7-5.4,6.4-9.1c1.8,3.2,3.2,6.5,4.4,10.1c0.2,0.7,1,1.2,1.8,1
		c5.7-1.6,8.6-6,10.1-11.3c5.9,2.1,10,6.5,14.7,10.6c0.9,0.8,2.6,0.3,2.5-1c-0.1-1.7-0.1-3.3-0.1-4.9c2.5,1.9,5.2,3.6,7.3,6
		c0.9,1,2.4,0.2,2.5-1c0.2-6.1,2.5-11.8,8.8-6.8c3.2,2.6,5.4,6.3,6.7,10.2c0.4,1.3,2.4,1.4,2.8,0c0.9-3.3,3-5.8,4.9-8.6
		c3.6,3.3,7.3,6.4,11.2,9.3c0.9,0.7,2.3-0.2,2.2-1.3c-0.5-7.2,3.1-6.6,8.4-4.5c2,0.8,4.5,1.6,6.1,3c1.4,1.2,2.1,3.3,3.5,4.6
		c3.7,3.6,8,2.2,9.6-2.5c0.9-2.5,0-4.5,3.6-5.5c2-0.6,4.8,0.6,6.6,1.2c3.9,1.3,7.6,3.2,11.7,3.9c7.4,1.3,12.6-2.4,16.7-8
		c2.6,1.5,5.4,2.4,7.7,4.5c0.6,0.6,1.9,0.6,2.3-0.3c4.7-9.8,11.6-6.8,19.2-2.1c1,0.6,2.1-0.2,2.2-1.3c0.3-2.9,1.4-5.6,1.7-8.4
		c7,2.1,11,8.7,14.6,14.8c0.5,0.9,2,1,2.5,0c2.5-4.8,10.5-4,15.8-5.7c0.3,1.3,0.7,2.6,1,3.9c0.4,1.6,2.9,1.2,2.8-0.4
		c-0.2-2,0.1-4,0.9-6c4.3-0.8,6.8,0.8,7.5,4.5c0.6,1.5,2.8,1.3,2.8-0.4c0.1-2.7,0.7-5.3,1-8c3.5,3,6.4,6.6,9.6,9.9
		c0.6,0.6,1.9,0.6,2.3-0.3c1.6-3.6,4.2-7.8,8.6-7.8c3.5,0,5.5,2.8,6.7,5.8c0.4,1.5,0.8,2.9,1.2,4.1c0.6,1.8,3.2,1.1,2.8-0.8
		c-0.3-1.3-0.6-2.5-1.1-3.6c-1.1-4.3-1.7-10,3.3-10.4c4.8-0.4,8.5,5.9,10.2,9.4c0.6,1.3,2.8,0.7,2.7-0.7c-0.1-2.6,0.2-5.1,0.4-7.6
		c4.1,2.6,6.5,6.9,9.2,10.9c0.6,0.8,2,1,2.5,0c1.6-3.2,3.6-4.6,5.7-5c2.1,0.3,4.1,1.8,5.7,5c0.5,1,1.9,0.8,2.5,0
		c2.7-4,5.2-8.3,9.2-10.9c0.2,2.5,0.5,5.1,0.4,7.6c-0.1,1.4,2.1,2,2.7,0.7c1.7-3.5,5.4-9.9,10.2-9.4c4.9,0.4,4.4,6.1,3.3,10.4
		c-0.4,1.1-0.8,2.3-1.1,3.6c-0.4,1.8,2.2,2.5,2.8,0.8c0.4-1.2,0.8-2.6,1.2-4.1c1.2-3,3.2-5.8,6.7-5.8c4.4,0,7,4.3,8.6,7.8
		c0.4,0.9,1.7,0.9,2.3,0.3c3.3-3.3,6.1-6.9,9.6-9.9c0.3,2.7,0.9,5.3,1,8c0.1,1.7,2.3,1.8,2.8,0.4c0.7-3.8,3.2-5.3,7.5-4.5
		c0.8,1.9,1.1,3.9,0.9,6c0,1.6,2.5,2,2.8,0.4c0.3-1.3,0.7-2.6,1-3.9c5.3,1.7,13.3,1,15.8,5.7c0.5,1,2,0.9,2.5,0
		c3.6-6.1,7.6-12.7,14.6-14.8c0.4,2.8,1.4,5.5,1.7,8.4c0.1,1,1.2,1.9,2.2,1.3c7.5-4.7,14.5-7.7,19.2,2.1c0.4,0.9,1.6,0.9,2.3,0.3
		c2.3-2.1,5.1-3,7.7-4.5c4.1,5.6,9.3,9.3,16.7,8c4.1-0.7,7.8-2.6,11.7-3.9c1.9-0.6,4.7-1.8,6.6-1.2c3.6,1,2.7,3,3.6,5.5
		c1.6,4.7,5.9,6,9.6,2.5c1.4-1.3,2.1-3.4,3.5-4.6c1.6-1.4,4.1-2.2,6.1-3c5.2-2,8.9-2.7,8.4,4.5c-0.1,1,1.3,1.9,2.2,1.3
		c3.9-3,7.6-6,11.2-9.3c1.9,2.8,3.9,5.3,4.9,8.6c0.4,1.4,2.4,1.3,2.8,0c1.3-3.9,3.5-7.6,6.7-10.2c6.2-5,8.6,0.7,8.8,6.8
		c0,1.2,1.6,2,2.5,1c2.1-2.4,4.8-4.1,7.3-6c0,1.6,0,3.3-0.1,4.9c-0.1,1.3,1.6,1.8,2.5,1c4.7-4.1,8.8-8.5,14.7-10.6
		c1.5,5.3,4.4,9.7,10.1,11.3c0.8,0.2,1.5-0.3,1.8-1c1.2-3.6,2.7-6.9,4.4-10.1c0.7,3.7,2.8,6.6,6.4,9.1c0.5,0.3,1.4,0.2,1.8-0.2
		c5-5.6,13.2-13,19-4c0.5,0.8,1.6,1,2.3,0.3c5.6-5.4,17.7-10.7,15.8,2.3c-0.2,1.2,0.9,2.3,2.1,1.6c4.2-2.5,8.2-7,12.6-8.9
		c2.4-1.1,2.5-0.6,3.6,1.8c1.4,3,1.9,6.5,2.7,9.7c0.3,1.1,1.7,1.4,2.4,0.6c3.7-3.7,7.1-7.6,11.5-10.5c1.5,2.2,3.6,3.8,5.3,5.9
		c0.5,0.6,1.6,0.5,2.1,0c2.1-2.3,4.4-4.2,7.5-4.8c3.2-0.6,2.8,0,3.5,2.7c0.3,1.1,1.6,1.4,2.4,0.6c2.9-2.8,6.1-3,9.7-3.6
		c0.2,1.4,0.4,2.7,0.6,4.1c0.2,1.3,1.5,1.9,2.5,1c6.1-5.3,19.6-11,17.1,2.7c-0.3,1.4,1.3,2.4,2.4,1.4c7.7-6.7,32.2-13.6,31.4,3.5
		c-0.1,1.5,2,1.9,2.7,0.7c7.9-13.8,16.9,0,27.6,0.1c9.5,0.2,16.1-8.2,25.5-7.9c0.1,1.9,0.3,3.9,0.3,5.8c0,0.9,0.9,1.7,1.8,1.4
		c2.8-1,5-2.9,7.3-4.6c1.5-1.2,3.4-3.2,5.2-3.9c3.9-1.3,3.7,2.1,3.7,5.3c0,1.5,2,1.9,2.7,0.7c3-4.8,16.2-17.8,18.7-6.1
		c0.3,1.3,2,1.3,2.7,0.3c3.6-5.4,9.2-7.6,13-0.3c0.5,1,1.9,0.9,2.5,0c3.4-5,18.3-12.9,14.4-0.7c-0.5,1.6,1.8,2.5,2.7,1.1
		c3.2-5.3,10.7-17.3,15.1-6.4c0.4,0.9,1.7,1.6,2.4,0.6c8.5-10.3,9.5,3.1,17.7,3.5c10.5,0.5,13.9-14.3,23.8-2.4
		c0.7,0.8,2.2,0.4,2.4-0.6c1.9-11,12-6.4,15.7,0.7c0.4,0.8,1.7,1,2.3,0.3c2-2.6,4.8-4,7.4-5.8c0.2,1.6,0.5,3.2,0.5,4.8
		c0,1.4,2,2.1,2.7,0.7c1.8-3.7,4.3-5.1,7.8-6.2c0.4,1.4,0.9,2.7,1.3,4.1c0.5,1.4,2.3,1.4,2.8,0c3.4-10.1,12.3-2.3,16.8,2.4
		c0.7,0.7,2.3,0.5,2.4-0.6c0.4-2.7,1.4-5.1,1.9-7.8c4.4-0.3,7.6,0.9,10.4,4.8c0.7,1,2.2,0.9,2.7-0.3c1.1-3,2.9-6.9,5.9-7.1
		c3.9-0.3,8.9,5.3,11.1,8.1c0.7,0.9,2.2,0.3,2.4-0.6c3.2-13.3,21.7-14.6,28-3.1c0.5,0.9,1.6,0.9,2.3,0.3c5.3-4.3,13-5.2,19.6-5.6
		c5.2-0.3,14.9-2.1,15.4,4.6c0.1,1.3,1.5,1.9,2.5,1c8-7.4,25.8-5.9,35.9-2.8c-0.4,2-0.6,4-1.2,5.9c-0.4,1.3,1.5,2.6,2.4,1.4
		c2.9-3.7,6.3-5.8,10.9-6.6c4.6-0.7,5.3,0.7,6.6,4.7c0.2,0.7,1,1.3,1.8,1c4.8-1.5,9.6-2.9,14.5-2c-0.2,0.3-0.5,0.7-0.7,1
		c-1.1,1.4,0.7,3.4,2.1,2.1c4.6-4.3,13.5-11.1,15.3-0.7c0.1,0.7,1.1,1.3,1.8,1c7.3-3.1,14.7-5.5,21.6-9.3c0.1,1.2,0.3,2.3,0.4,3.5
		c0.1,0.9,0.8,1.7,1.8,1.4c4.6-1.2,10.9-6.4,15.3-2.2c0.6,0.6,1.4,0.5,2.1,0c6.7-5.7,18.6-7.4,24.7-0.1c0.6,0.7,1.9,0.5,2.3-0.3
		c4.6-9.3,11.9-4.9,15,2.7c0.5,1.2,2.4,1.5,2.8,0c1-4.3,2.4-8.4,3.9-12.5c12.8,9.4,30.5-11.4,42,0.3c0.6,0.6,1.9,0.6,2.3-0.3
		c3.5-7.2,15.4-6.3,22.1-6c7.2,0.3,14.5,1.7,21.7,1.7c3.3,0,5.9-1.1,8.9-2.2c4.9-1.8,7-1.4,11.8,0c4.2,1.2,8.3,1.1,12.7,0.9
		c6.7-0.2,12,0.6,17.9,3.9c0.5,0.3,1.4,0.3,1.8-0.2c5.9-7.2,15.6-6.6,19.3,2.4c0.5,1.3,2.3,1.4,2.8,0c3.6-10.2,13.1,0.3,17.8,3.9
		c0.7,0.5,1.8,0.6,2.3-0.3c4.1-8.6,12.8-8,18.7-1.5c0.8,0.8,2.1,0.3,2.4-0.6c3-9.4,10.5-3.6,16-0.3c0.8,0.5,1.9,0,2.1-0.9
		c0.6-2.6,1.9-4.9,2.7-7.4c4,1.1,7.2,2.8,9.9,6.2c0.9,1.1,2.4,0.1,2.5-1c0.3-3,1.9-5.6,2.9-8.3c5.8,1.3,9.8,4.9,12.3,10.5
		c0.6,1.4,2.7,0.6,2.7-0.7c0-1.8,0.2-3.6,0.4-5.3c0.7,0,1.3,0.2,1.9,0.3v-3C2495,4.6,2493.9,4.6,2492.7,4.6z"/>
	<g>
		<path class="st1" d="M2312.5,142.5c-7.5,2.8-15,6.1-20.6,11.8c-5.6,5.7-8.9,14.3-6.3,21.9c2.1,6.3,7.9,10.8,14.1,13
			s13,2.3,19.7,2.2c25.1-0.6,51.7-6.3,69.3-24.3c2.1-2.2,4.2-4.6,5.3-7.4c0,0,0,0,0,0c2.8-7.2-1.2-18.7-6.9-23.7
			c-5.7-5-11.9-4.5-19.9-4.4C2348.4,131.8,2329.9,136,2312.5,142.5z"/>
	</g>
	<g>
		<path class="st1" d="M2133.6,185.6c0.8,1.7,2.3,2.9,3.8,4c7.5,5.6,16.8,9.2,26.2,8.9c0.8,0,1.6-0.1,2.4-0.1
			c10.5-1,19.8-6.8,28.7-12.4c0,0,0,0,0,0c22.2-14,6.2-27.1-12.8-28.8C2170.4,156.2,2122.8,163.9,2133.6,185.6z"/>
	</g>
	<g>
		<path class="st1" d="M2229,114.5C2229,114.5,2229,114.5,2229,114.5c-4.4,1.7-9.6,5.4-8.2,9.9c0.6,2.1,2.6,3.5,4.5,4.5
			c7,3.4,15.4,2.5,22.9,0.4c3.9-1.1,7.9-2.6,10.9-5.4c6.2-5.8,4.8-16.1-3.9-17.8C2248.9,104.9,2234.7,112.3,2229,114.5z"/>
	</g>
	<g>
		<path class="st1" d="M1935.3,172.3c-7.2-2.4-15.3-7.5-14.8-15.1c0.2-3.3,2.1-6.2,4.2-8.8c0,0,0,0,0,0c14.9-18.6,68.1-40.4,83-10.2
			C2025.2,173.8,1953.5,178.5,1935.3,172.3z"/>
	</g>
	<g>
		<path class="st1" d="M1831.7,125C1831.7,125,1831.7,125,1831.7,125c-1.5,1.7-2.8,3.8-3,6.1c-0.2,3.1,1.8,6,4.4,7.6
			c2.6,1.6,5.8,2.2,8.8,2.4c10.2,0.7,20.7-2.1,29.2-7.9c3.2-2.2,6.4-5.1,6.9-8.9c0.5-3.6-1.6-7.3-4.6-9.3
			C1863.3,108,1839.2,116.6,1831.7,125z"/>
	</g>
	<g>
		<path class="st1" d="M1642.6,207.9C1642.6,207.9,1642.6,207.9,1642.6,207.9c-0.3,1.2-0.5,2.6,0,3.8c0.5,1.2,1.5,2,2.5,2.8
			c13.6,10.4,32.1,13.3,48.7,9.5c16.9-3.9,73.4-40.3,33.9-51.5C1700.3,164.6,1649.5,176.1,1642.6,207.9z"/>
	</g>
	<g>
		<path class="st1" d="M1496.6,109.9C1496.6,109.9,1496.6,109.9,1496.6,109.9c-4.6,1.7-9.6,3.8-12,8.1c-1.3,2.3-1.6,4.9-1.8,7.5
			c-0.4,5.5-0.1,11.4,3.1,15.9c3.5,4.8,9.6,6.9,15.4,8.1c18.9,3.8,76.1-3.1,72.1-33C1569.4,86.6,1511.8,104.2,1496.6,109.9z"/>
	</g>
	<g>
		<path class="st1" d="M1371.9,178.1C1371.9,178.1,1371.9,178.1,1371.9,178.1c0.2,1.3,0.4,2.7,1.3,3.7c0.8,1,2.1,1.4,3.3,1.8
			c11.5,3.6,29,4.5,39.6-2.4c8.8-5.7,9.4-17.8,0.2-24.1c-7.1-4.8-18-2.1-25.8-0.7C1376.8,158.8,1369.5,162.7,1371.9,178.1z"/>
	</g>
</g>
</svg>
