<?xml version="1.0" encoding="utf-8"?>
<!-- Generator: Adobe Illustrator 27.9.6, SVG Export Plug-In . SVG Version: 9.03 Build 54986)  -->
<svg version="1.1" id="Calque_1" xmlns="http://www.w3.org/2000/svg" xmlns:xlink="http://www.w3.org/1999/xlink" x="0px" y="0px"
	 viewBox="0 0 3840 470.5" style="enable-background:new 0 0 3840 470.5;" xml:space="preserve">
<style type="text/css">
	.st0{fill:#2ABE6C;}
</style>
<path class="st0" d="M3790.3,28.6c-9,9.9-16.5,22.4-29.1,26.8c-16.3,5.7-33.3-4.5-49.5-10.7c-32.9-12.6-71.8-8-100.9,11.9
	c-18.5,12.7-33.1,31-53.5,40.3c-44.7,20.3-98.6-9.8-145.6,4.4c-44.1,13.3-75,63.6-121.1,62.3c-30.9-0.8-56.5-25.5-87-30.2
	c-58.4-9-111.6,56.2-168.8,41.3c-30.3-7.9-51.9-36.8-82.4-43.6c-44.7-10-89.8,30.9-134.1,19c-14.5-3.9-27.1-13.2-41.7-16.7
	c-48.3-11.7-91.7,42.4-141.3,38.2c-62-5.3-87.6-94.5-149-104.9c-34.6-5.9-68.5,16.2-103.6,14.8c-53.9-2.1-93.3-57.4-146.9-63.7
	c-49.1-5.7-97,31.4-145.2,20.6c-25.5-5.7-47.5-24.4-73.5-25.6c-34.4-1.6-62.8,27.2-96.6,33.7c-0.2,0-0.4,0.1-0.6,0.1
	c-0.2,0-0.4-0.1-0.6-0.1c-33.8-6.6-62.2-35.3-96.6-33.7c-26.1,1.2-48.1,19.9-73.5,25.6c-48.2,10.8-96.2-26.3-145.2-20.6
	c-53.6,6.2-93,61.6-146.9,63.7c-35.1,1.4-69-20.7-103.6-14.8c-61.3,10.4-87,99.6-149,104.9c-49.5,4.2-93-49.9-141.3-38.2
	c-14.6,3.5-27.2,12.8-41.7,16.7c-44.2,11.9-89.4-29-134.1-19c-30.5,6.8-52.1,35.7-82.4,43.6c-57.2,14.9-110.4-50.3-168.8-41.3
	c-30.6,4.7-56.1,29.4-87,30.2c-46.1,1.3-76.9-49-121.1-62.3c-47-14.2-100.9,15.9-145.6-4.4c-20.4-9.3-35.1-27.6-53.5-40.3
	c-29.1-19.9-68-24.5-100.9-11.9c-16.1,6.2-33.1,16.3-49.5,10.7C66.2,51,58.7,38.6,49.7,28.6C37.7,15.4,19.5,6.5,0,2.8v467.6h1920
	h1920V2.8C3820.5,6.5,3802.3,15.4,3790.3,28.6z"/>
<path d="M3788.5,26.9c-6,6.6-11.1,14.3-18,20.1c-13.2,11.1-28.5,7.5-43.1,1.6c-19.8-7.9-38.4-14.3-60.1-13.2
	c-20.5,1.1-40.8,7.5-57.8,19.1c-18.4,12.6-32.9,31-53.5,40.3c-43.6,19.7-92.5-7.1-137.7,2.3c-38.1,7.9-62.7,41.1-96.8,57.1
	c-23.3,10.9-45.6,6.7-68.2-3.9c-18-8.4-35.6-18.7-56-20c-37.7-2.6-71,21.6-104.5,35c-18.7,7.5-39.1,12.3-59,6.6
	c-21.2-6.1-37.6-22.1-56.4-33c-38.7-22.6-74.3-4.1-113.5,6.6c-11.5,3.1-23.4,5.3-35.3,4.1c-13.5-1.4-25-8.1-37.2-13.5
	c-15.9-7-31.8-8.4-48.6-4c-37.5,9.8-71.1,43.2-112,36.5c-34.1-5.6-56.9-37-78.8-60.8c-21.7-23.5-46.9-45.7-80.9-44.4
	c-22.6,0.8-43.7,9.8-65.7,13.8c-24.2,4.4-46-0.4-67.6-11.7c-33.2-17.5-63.2-45.7-101.9-50.1c-46.4-5.2-88,26.1-134.1,22.3
	c-24-2-43.6-16.7-66-23.8c-18.4-5.8-36.2-3.5-53.9,3.8c-20.7,8.6-39.7,22.1-62,26.4c-22.3-4.3-41.3-17.9-62-26.4
	c-17.6-7.3-35.4-9.6-53.9-3.8c-22.4,7.1-42,21.8-66,23.8c-46.2,3.9-87.7-27.5-134.1-22.3c-38.7,4.4-68.6,32.6-101.9,50.1
	c-21.5,11.3-43.4,16.1-67.6,11.7c-22-4-43.1-13-65.7-13.8c-34-1.2-59.2,20.9-80.9,44.4c-21.9,23.8-44.6,55.2-78.8,60.8
	c-40.9,6.7-74.5-26.7-112-36.5c-16.8-4.4-32.7-3-48.6,4c-12.2,5.3-23.7,12.1-37.2,13.5c-11.9,1.2-23.9-1-35.3-4.1
	c-39.2-10.7-74.8-29.1-113.5-6.6c-18.7,10.9-35.1,26.8-56.4,33c-19.9,5.7-40.3,0.9-59-6.6c-33.5-13.4-66.8-37.6-104.5-35
	c-20.3,1.4-37.9,11.6-56,20c-22.6,10.6-44.9,14.8-68.2,3.9c-34.1-16-58.7-49.2-96.8-57.1c-45.2-9.4-94.1,17.4-137.7-2.3
	c-20.6-9.3-35.1-27.7-53.5-40.3c-17-11.6-37.3-18.1-57.8-19.1c-21.7-1.1-40.3,5.2-60.1,13.2C98,54.4,82.6,58,69.4,47
	c-6.9-5.8-12-13.5-18-20.1C38.5,13.1,19.8,3.8,0,0v5.3C18.1,8.7,35.3,17,47.9,30.4C59,42.6,68.3,58.1,86.4,59.5
	c21.6,1.7,41.5-14.2,62.5-17.7c24.7-4.2,50.9,0.4,72.6,13.1c18.9,11,33,28.6,51.7,39.9c38.6,23.3,83.7,5.1,125.4,5.1
	c44.7,0,71,31.4,106.5,52.8c13.9,8.4,29.5,14.4,46.1,13.4c19.9-1.1,37.3-11.4,54.9-19.7c22-10.3,42.9-14.2,66.5-7.6
	c18.6,5.2,35.9,14.3,53.3,22.5c31.8,15,64.9,26.2,98.1,8.5c18.7-10,34.4-25.5,54.4-33.2c22.3-8.6,45.3-2.7,67.1,4.3
	c18.1,5.9,36.4,13.1,55.7,13.8c23.8,1,40.7-13.6,62.8-19c38.9-9.4,74,23.2,109.1,34.2c73.4,23,102.2-58.1,153.8-90.1
	c41.3-25.7,81.4,2.9,124.5,4.1c39,1.1,70.4-25.3,102.1-44.1c18.4-10.9,38.2-19.9,60-20.2c23.5-0.3,46.1,7.8,68.4,14.3
	c19.5,5.7,39.9,10.7,60.3,8.1c21.6-2.7,39.6-15.2,59.8-22.4c44.7-15.8,76.7,21.6,118,29.3c41.3-7.6,73.3-45,118-29.3
	c20.2,7.1,38.1,19.6,59.8,22.4c20.5,2.6,40.8-2.4,60.3-8.1c22.3-6.5,44.9-14.6,68.4-14.3c21.8,0.3,41.6,9.3,60,20.2
	c31.7,18.8,63.1,45.2,102.1,44.1c43.1-1.2,83.3-29.8,124.5-4.1c51.6,32.1,80.4,113.1,153.8,90.1c35.1-11,70.2-43.6,109.1-34.2
	c22.1,5.4,39,19.9,62.8,19c19.3-0.8,37.5-8,55.7-13.8c21.8-7.1,44.8-13,67.1-4.3c20,7.7,35.6,23.3,54.4,33.2
	c33.2,17.6,66.3,6.5,98.1-8.5c17.4-8.2,34.6-17.4,53.3-22.5c23.6-6.5,44.6-2.7,66.5,7.6c17.6,8.3,35.1,18.5,54.9,19.7
	c16.5,1,32.1-5,46.1-13.4c35.5-21.4,61.9-52.7,106.5-52.8c41.6,0,86.7,18.2,125.4-5.1c18.7-11.3,32.8-28.9,51.7-39.9
	c21.7-12.6,47.9-17.2,72.6-13.1c21,3.5,40.9,19.4,62.5,17.7c18.1-1.4,27.4-16.9,38.5-29.1c12.6-13.4,29.8-21.7,47.9-25.2V0
	C3820.2,3.8,3801.5,13.1,3788.5,26.9z"/>
<path d="M3836.6,278.4c-19.7-1.2-39,10-52.3,24c-32.3-43.6-104.9-50.5-136.8-3.4c-30.5-39.5-102.9-28.4-119.8,18.6
	c-43-28.3-108-5.9-125,42.4c-34.9-29.9-95.7-15.3-113.5,26.9c-34.7-41.4-104.6-44.2-142-4.7c-24.1-54.6-102.3-73.6-148.5-35.3
	c-34.1-38.8-96.8-44.3-137.6-12.9c-37.7-49.4-120.2-50.6-159.5-2.5c-43.2-45.7-128.9-31.2-155.8,25c-21.3-25.5-48.4-49.9-82.2-55.7
	c-27.2-4.7-56.6,3.1-74.1,24.9c-16.9-29.2-37-58.5-66.7-75.8c-26.2-15.2-59-19.6-86.4-5.7c-4.9-23.3-24.9-40.1-47.4-46.4
	c-13.9-3.9-28.7-3.3-42.7-0.5c-8.6,1.7-17,4.5-25.2,7.7c-3.7,1.5-7.4,3.1-11.1,4.8c-3,1.4-7.1,4.7-10.2,5c-4.9,0.5-10-3.7-14.8-5.4
	c-4.9-1.7-10-2.7-15.2-3.2c-11.1-1-22.4,0.8-32.8,4.9c-18.8,7.3-34.1,21.7-40.5,40.8c-14.5-8.5-31.1-12.2-48-11.3
	c-9.6,0.5-19.3,2.5-28.6,5.7c-9.3-3.2-18.9-5.2-28.6-5.7c-16.9-0.9-33.4,2.9-48,11.3c-6.4-19.1-21.7-33.5-40.5-40.8
	c-10.3-4-21.7-5.8-32.8-4.9c-5.2,0.5-10.3,1.5-15.2,3.2c-4.8,1.7-9.9,5.8-14.8,5.4c-3.1-0.3-7.2-3.6-10.2-5
	c-3.6-1.7-7.3-3.3-11.1-4.8c-8.2-3.2-16.6-6-25.2-7.7c-14-2.8-28.8-3.4-42.7,0.5c-22.6,6.3-42.5,23.1-47.4,46.4
	c-27.4-13.9-60.2-9.5-86.4,5.7c-29.7,17.3-49.8,46.6-66.7,75.8c-17.6-21.8-46.9-29.5-74.1-24.9c-33.8,5.8-60.8,30.2-82.2,55.7
	c-26.9-56.3-112.6-70.7-155.8-25c-39.3-48.1-121.8-46.9-159.5,2.5c-40.7-31.4-103.4-25.9-137.6,12.9
	c-46.1-38.2-124.4-19.3-148.5,35.3c-37.4-39.5-107.3-36.7-142,4.7c-17.8-42.3-78.6-56.9-113.5-26.9c-17-48.3-82.1-70.7-125-42.4
	c-17-47.1-89.3-58.1-119.8-18.6c-31.9-47.1-104.4-40.2-136.8,3.4c-13.3-14-32.6-25.2-52.3-24c-1.1,0.1-2.3,0.2-3.4,0.3v4.9
	c19.9-3.4,41.5,10.2,54.2,24.5c1.1,1.3,3.1,0.7,3.9-0.5c29.9-43.8,102.8-51.1,132.1-2.9c0,0,0,0,0,0c0,0,0,0,0,0
	c0.1,0.2,0.2,0.3,0.4,0.5c0.1,0.1,0.1,0.1,0.2,0.2c0.1,0.1,0.2,0.1,0.2,0.2c0.1,0.1,0.2,0.1,0.3,0.1c0.1,0,0.1,0.1,0.2,0.1
	c1.1,0.4,2.3,0,3-1.1c27.3-40.6,100.2-29.2,114.1,17.6c0.4,1.4,2.3,2.5,3.7,1.5c41.3-29.9,107.2-7.7,121.5,41.4
	c0.5,1.8,2.8,2.4,4.2,1.1c32.7-31.8,95.1-16.9,109.8,26.4c0.7,2.2,3.3,2.3,4.6,0.6c32.6-43.6,104.3-45.5,139.6-4.6
	c1.3,1.6,3.6,0.5,4.2-1.1c20.9-54.9,99.9-74.1,143.8-35.3c0.9,0.8,2.6,1.1,3.5,0c32.5-38.8,94.9-45.1,134.2-12.9
	c1.3,1.1,2.9,0.9,3.9-0.5c35.2-49.3,118-50.6,154.6-2.2c0.9,1.2,2.8,1.8,3.9,0.5c40.8-46.2,127.4-32.5,151.1,24.7
	c0.6,1.5,2.8,2.7,4.2,1.1c19.5-23.9,43.3-46.8,73.7-55.4c28.2-7.9,61.9-1,79.6,23.8c1.1,1.5,3.3,1.7,4.3,0
	c15.8-27.7,34.1-55.8,61.2-73.8c26.4-17.5,61.5-23.7,90-7.5c1.3,0.7,3.4,0.2,3.7-1.5c3.7-24.8,25.1-42.2,48.9-47.1
	c29.2-6.1,58.9,6.1,84.3,19.3c0.8,0.4,1.8,0.5,2.5,0c33.8-22.6,85.1-3.7,96,35.5c0.4,1.5,2.3,2.4,3.7,1.5
	c23.3-14.7,51.6-15.4,76.8-6.2c25.1-9.1,53.5-8.5,76.8,6.2c1.4,0.9,3.3,0,3.7-1.5c10.9-39.3,62.2-58.1,96-35.5
	c0.8,0.5,1.8,0.4,2.5,0c25.5-13.2,55.1-25.3,84.3-19.3c23.8,4.9,45.2,22.3,48.9,47.1c0.2,1.6,2.4,2.2,3.7,1.5
	c28.5-16.2,63.6-10,90,7.5c27.1,17.9,45.3,46.1,61.2,73.8c1,1.7,3.3,1.5,4.3,0c17.6-24.8,51.3-31.8,79.6-23.8
	c30.5,8.6,54.2,31.5,73.7,55.4c1.3,1.6,3.5,0.4,4.2-1.1c23.7-57.2,110.4-70.9,151.1-24.7c1.2,1.3,3,0.7,3.9-0.5
	c36.6-48.4,119.4-47.1,154.6,2.2c1,1.4,2.6,1.6,3.9,0.5c39.3-32.3,101.7-26,134.2,12.9c0.9,1.1,2.6,0.8,3.5,0
	c43.9-38.9,122.9-19.6,143.8,35.3c0.6,1.6,2.8,2.7,4.2,1.1c35.4-41,107.1-39,139.6,4.6c1.3,1.7,3.8,1.6,4.6-0.6
	c14.6-43.3,77.1-58.2,109.8-26.4c1.4,1.3,3.6,0.7,4.2-1.1c14.3-49.1,80.2-71.3,121.5-41.4c1.4,1,3.3-0.1,3.7-1.5
	c13.8-46.8,86.8-58.2,114.1-17.6c0.7,1,2,1.4,3,1.1c0.1,0,0.1,0,0.2-0.1c0.1,0,0.2-0.1,0.3-0.1c0.1-0.1,0.2-0.1,0.2-0.2
	c0.1-0.1,0.1-0.1,0.2-0.2c0.1-0.1,0.3-0.3,0.4-0.5c0,0,0,0,0,0c0,0,0,0,0,0c29.3-48.2,102.2-40.9,132.1,2.9c0.8,1.2,2.8,1.8,3.9,0.5
	c12.6-14.3,34.2-27.8,54.2-24.5v-4.9C3838.9,278.5,3837.8,278.4,3836.6,278.4z"/>
</svg>
