<?xml version="1.0" encoding="utf-8"?>
<!-- Generator: Adobe Illustrator 27.9.6, SVG Export Plug-In . SVG Version: 9.03 Build 54986)  -->
<svg version="1.1" id="Calque_1" xmlns="http://www.w3.org/2000/svg" xmlns:xlink="http://www.w3.org/1999/xlink" x="0px" y="0px"
	 viewBox="0 0 1920 146.4" style="enable-background:new 0 0 1920 146.4;" xml:space="preserve">
<style type="text/css">
	.st0{fill:#ABE546;}
</style>
<path class="st0" d="M1876.4,117.1L1876.4,117.1c-0.2-6.2-0.4-12.5-0.7-18.8c-8.9,2.3-16.9,8-22,15.7c3.9-26.6-3.9-54.7-20.8-75.5
	c-7.3,23.9-14.7,47.7-22,71.6c-0.1-6.4-2.8-12.6-7.3-17c-5.5,2.4-9.8,7.4-11.5,13.1c3-29.9-6.7-60.9-26.2-83.9
	c-6.1,29.7-12.2,59.5-18.3,89.2c-2.6-3.4-5.5-7-9.6-8c-4.2-1-9.3,2.8-8,6.9c-6-15.4-11.9-30.8-17.9-46.3
	c-2.4,21.2-16.2,40.8-35.4,50.1c-2.7-3-5.3-6.1-8-9.1c-13.6,1.6-27.3,2.1-40.9,1.6c16.8-20.4,29.1-44.4,35.9-69.9
	c0.9-3.3,1.6-7-0.2-9.9c-4.7-7.3-15.5,0.9-19.7,8.4c-13.4,24.2-26.8,48.3-40.2,72.4c-1.9-6.2-6.3-11.4-12-14.3
	c-2.9,5.6-7,10.6-12,14.5c-3-6-5.9-11.9-8.8-17.9c-4.2,2.9-8.3,5.8-12.5,8.7c-1.6-29.4-15.4-57.9-37.4-77.4
	c-0.2,9.4-0.4,18.9-0.6,28.3c-1.2-4.7-7.6-7.9-12.6-6.6c-6.3,1.7-10.5,7.5-14.1,12.8c-10.4,15.3-20.7,30.5-31.1,45.7
	c-1.9-7.5-14.9-7.9-17.3-0.6c-9.3-7.1-23.6-6.4-32.2,1.6c-2.4-34.1-7.8-68-16.2-101.1c-9.3,29.1-18.8,58.3-28.1,87.4
	c0.4-8.1-1.9-16.3-6.4-23c-5.2,6.5-10.4,13.1-15.6,19.6c4.4-7.9-11.1-12.5-17.9-6.4s-11.2,16.2-20.2,17.1
	c-3.2-18.8-6.4-37.7-9.6-56.5c-20,12.8-35.2,33-42,55.7c-1.7-5.1-5.9-9.3-11-11c-5.6,6.8-10.2,14.5-13.5,22.7
	c-10.4-11-31.6-7.5-38,6.2c-20.8-33.7-41.7-67.5-62.6-101.2c0.1,26.2,0.2,52.3,0.3,78.5c-3.2-7.9-12.5-12.9-20.8-11.1
	c-6.3,1.3-11.5,6.3-13.6,12.3c-1.8-4.1-7.3-7.5-11.9-6c-7.1,2.3-10.7,10.1-13.4,17c-17-21.9-26.5-49.5-26.5-77.2
	c-14.6-1.6-21.1,18.3-19.5,32.8s4.9,32.4-6.7,41.4c-4.7-4.4-9.3-8.9-13.9-13.4c-4.2,3.9-8.4,7.9-12.6,11.9c1-4.7-5.3-8.2-9.8-6.7
	c-4.5,1.6-7.4,5.9-9.9,10c1.3-23.5-3.5-47.4-13.5-68.6c-10,21.3-14.7,45.1-13.5,68.6c-2.5-4.1-5.3-8.4-9.9-10
	c-4.5-1.6-10.7,2-9.8,6.7c-4.2-3.9-8.4-7.9-12.6-11.9c-4.7,4.4-9.3,8.9-13.9,13.4c-11.6-9-8.3-26.8-6.7-41.4s-4.9-34.4-19.5-32.8
	c0,27.7-9.5,55.3-26.5,77.2c-2.7-7-6.3-14.7-13.4-17c-4.7-1.6-10.2,1.9-11.9,6c-2.1-6-7.3-11-13.6-12.3c-8.4-1.8-17.6,3.2-20.8,11.1
	c0.1-26.2,0.2-52.3,0.3-78.5c-20.8,33.7-41.7,67.5-62.6,101.2c-6.4-13.6-27.6-17.1-38-6.2c-3.3-8.2-7.9-15.9-13.5-22.7
	c-5.1,1.7-9.3,5.9-11,11c-6.8-22.8-22-42.9-42-55.7c-3.2,18.8-6.4,37.7-9.6,56.5c-9-0.9-13.5-11.1-20.2-17.1s-22.3-1.5-17.9,6.4
	c-5.2-6.5-10.4-13.1-15.6-19.6c-4.6,6.7-6.9,14.9-6.4,23c-9.4-28.9-18.8-58-28.2-87.2c-8.4,33.1-13.9,67-16.2,101.1
	c-8.6-7.9-22.9-8.6-32.2-1.6c-2.4-7.4-15.4-7-17.3,0.6c-10.4-15.3-20.7-30.5-31.1-45.7c-3.6-5.4-7.9-11.1-14.1-12.8
	c-5.1-1.4-11.4,1.9-12.6,6.6c-0.2-9.4-0.4-18.9-0.6-28.3c-22,19.5-35.8,48-37.4,77.4c-4.2-2.9-8.3-5.8-12.5-8.7
	c-3,6-5.9,11.9-8.8,17.9c-5-3.9-9.2-8.8-12-14.5c-5.7,3-10.1,8.2-12,14.3c-13.4-24.2-26.8-48.3-40.2-72.4c-4.2-7.6-15-15.7-19.7-8.4
	c-1.9,2.9-1.1,6.6-0.2,9.9C263,62.6,275.4,86.6,292,107c-13.6,0.5-27.4,0-40.9-1.6c-2.7,3-5.3,6.1-8,9.1
	c-19.2-9.3-33-28.9-35.4-50.1c-6,15.4-11.9,30.8-17.9,46.3c1.3-4.1-3.9-7.8-8-6.9c-4.2,0.9-7.1,4.6-9.6,8
	c-6.1-29.7-12.2-59.5-18.3-89.2c-19.5,23-29.1,54-26.2,83.9c-1.8-5.7-6.1-10.7-11.5-13.1c-4.4,4.5-7.1,10.7-7.3,17
	c-7.3-23.9-14.7-47.7-22-71.6c-17,20.6-24.8,48.7-20.9,75.3c-5-7.7-13-13.4-22-15.7c-0.2,6.2-0.4,12.5-0.7,18.8l0,0
	C35.9,101.2,20,65.3,0,59.8v86.6h959.9h959.9V59.8C1899.7,65.3,1883.8,101.2,1876.4,117.1z"/>
<path d="M1917,58.8c-11,4.2-18.9,14.9-25.1,24.5c-5.3,8.3-9.7,17.1-13.9,26.1c-0.1-3.7-0.3-7.3-0.4-11c-0.1-1.2-1.2-2.1-2.4-1.8
	c-7.5,2.1-13.9,6.1-19,11.6c1.9-25.5-5.9-50.8-21.9-70.9c-0.9-1.1-2.7-0.4-3.1,0.8c-6.6,21.5-13.2,43-19.8,64.5
	c-1.3-3.9-3.4-7.5-6.4-10.7c-0.6-0.6-1.6-0.7-2.2-0.3c-3.3,1.7-6.1,3.9-8.3,6.7c0.6-28-9.1-55.5-27.1-77.2c-0.9-1-2.8-0.5-3.1,0.8
	c-5.9,28.5-11.7,57.1-17.6,85.5c-3-3.4-6.7-6.4-11.4-5.6c-2.2,0.4-4.2,1.5-5.4,3c-5.3-13.6-10.6-27.4-15.9-41
	c-0.8-2-3.4-1.6-3.6,0.5c-2.5,20.3-15.1,38.2-33.1,47.8c-2.1-2.7-4.9-7-7.6-8.4c-2.4-1.2-8.9,0.6-11.6,0.8
	c-8.8,0.7-17.6,0.9-26.5,0.7c10.5-13.5,19.3-28.2,25.9-44c3.4-8.1,6.7-16.7,8.5-25.3c1-5,0.5-11.2-5.1-13
	c-5.1-1.6-10.5,2.2-13.9,5.6c-6.2,6.2-9.9,15.3-14,22.9c-9.7,17.5-19.4,35-29.1,52.5c-2.5-5-6.2-8.9-11.3-11.7
	c-0.8-0.4-2.1-0.2-2.5,0.7c-2.5,4.8-5.8,8.9-9.8,12.5c-2.6-5.3-5.3-10.6-7.9-15.9c-0.4-0.8-1.8-1.2-2.5-0.7
	c-3.3,2.3-6.6,4.6-9.9,6.9c-2.7-28.8-16.2-55.9-37.7-75.3c-1.2-1-3.1-0.4-3.2,1.3c-0.1,7.6-0.3,15.1-0.4,22.7
	c-1.1-1-2.4-1.7-3.9-2.2c-6.7-2.4-13,1.3-17.4,6.3c-6.6,7.3-11.6,16.4-17.2,24.5c-5.8,8.5-11.6,17-17.3,25.5
	c-4.4-5.6-13.9-5.5-18.1,0.4c-9.3-5.7-21.1-5.3-30,0.7c-2.5-33.1-7.9-65.9-16-98.1c-0.4-1.9-3-1.7-3.6,0
	c-8.4,26.2-16.8,52.3-25.2,78.4c-1-5.1-3-9.9-5.9-14.4c-0.6-0.9-2.1-1.3-2.9-0.4c-4.2,5.2-8.3,10.5-12.4,15.6
	c-2-4.2-8.5-6.2-13.5-5.6c-11.6,1.4-14.5,16.1-25.1,19.3c-3.1-18.2-6.2-36.5-9.3-54.7c-0.2-1.2-1.8-1.7-2.7-1.1
	c-19.3,12.6-33.8,31-41.4,52.6c-2.4-3.6-5.7-6.3-10.1-8c-0.5-0.2-1.4,0-1.8,0.4c-5.2,6.4-9.5,13.4-12.9,21
	c-11.3-8.8-29.2-6.2-37.4,5.6c-20.3-32.8-40.6-65.7-60.9-98.6c-1-1.6-3.5-1-3.5,1c0.1,24.1,0.1,48.2,0.3,72.3
	c-4.8-5.3-12.2-8.2-19.4-6.7c-5.9,1.3-10.6,5.3-13.3,10.4c-1.9-2.2-4.7-3.9-7.8-4.4c-9-1.3-14.5,7.9-17.8,15.4
	c-15.5-21.4-23.9-47-24.2-73.5c0-1-0.8-1.8-1.9-1.9c-14.1-0.9-20.3,14.2-21.3,25.9c-1.4,15.2,7.6,35.4-4.8,47.6
	c-4.2-4.1-8.4-8.1-12.6-12.2c-0.7-0.7-1.9-0.7-2.6,0c-3.4,3.2-6.7,6.3-10.2,9.5c-1.4-3.1-4.8-5.1-8.4-5.2c-4.4-0.1-7.8,2.7-10.5,6
	c0.1-22.4-4.8-44.3-14.4-64.6c-0.2-0.4-0.6-0.7-1-0.8c-0.4,0.1-0.8,0.4-1,0.8c-9.6,20.3-14.5,42.2-14.4,64.6
	c-2.7-3.3-6.1-6.2-10.5-6c-3.6,0.1-7,2.1-8.4,5.2c-3.4-3.2-6.7-6.3-10.2-9.5c-0.7-0.7-1.9-0.7-2.6,0c-4.2,4.1-8.4,8.1-12.6,12.2
	c-12.4-12.2-3.3-32.4-4.8-47.6c-1.1-11.8-7.3-26.8-21.3-25.9c-1,0.1-1.9,0.8-1.9,1.9c-0.2,26.5-8.7,52.1-24.2,73.5
	c-3.3-7.6-8.7-16.7-17.8-15.4c-3,0.4-5.9,2.1-7.8,4.4c-2.7-5.1-7.4-9.1-13.3-10.4c-7.3-1.6-14.7,1.3-19.4,6.7
	c0.1-24.1,0.1-48.2,0.3-72.3c0-1.9-2.5-2.4-3.5-1c-20.3,32.8-40.6,65.7-60.9,98.6c-8.2-11.8-26.1-14.5-37.4-5.6
	c-3.4-7.6-7.6-14.5-12.9-21c-0.4-0.4-1.3-0.7-1.8-0.4c-4.4,1.7-7.7,4.3-10.1,8c-7.7-21.6-22.2-40-41.4-52.6c-1-0.6-2.5-0.1-2.7,1.1
	c-3.1,18.2-6.2,36.5-9.3,54.7c-10.5-3.3-13.3-18-25.1-19.3c-5-0.6-11.5,1.3-13.5,5.6c-4.2-5.2-8.3-10.5-12.4-15.6
	c-0.8-1-2.3-0.5-2.9,0.4c-3,4.5-4.9,9.3-5.9,14.4c-8.4-26.2-16.8-52.3-25.2-78.4c-0.5-1.7-3.1-1.9-3.6,0c-8.2,32.2-13.5,65-16,98.1
	c-9-5.9-20.7-6.4-30-0.7c-4.2-5.9-13.7-6-18.1-0.4c-5.8-8.5-11.6-17-17.3-25.5c-5.6-8.2-10.6-17.2-17.2-24.5
	c-4.4-5-10.7-8.7-17.4-6.3c-1.5,0.5-2.8,1.3-3.9,2.2c-0.1-7.6-0.3-15.1-0.4-22.7c0-1.6-2-2.4-3.2-1.3c-21.6,19.4-35,46.5-37.7,75.3
	c-3.3-2.3-6.6-4.6-9.9-6.9c-0.8-0.5-2.1-0.1-2.5,0.7c-2.6,5.3-5.3,10.6-7.9,15.9c-4-3.6-7.3-7.6-9.8-12.5c-0.4-0.9-1.7-1.1-2.5-0.7
	c-5,2.8-8.8,6.7-11.3,11.7c-9.7-17.5-19.4-35-29.1-52.5c-4.2-7.6-7.9-16.8-14-22.9c-3.4-3.4-8.8-7.3-13.9-5.6
	c-5.6,1.9-6.2,8.1-5.1,13c1.9,8.6,5.1,17.2,8.5,25.3c6.6,15.8,15.3,30.5,25.9,44c-8.8,0.2-17.6,0-26.5-0.7c-2.7-0.2-9.3-2-11.6-0.8
	c-2.7,1.3-5.4,5.6-7.6,8.4c-17.9-9.6-30.5-27.5-33.1-47.8c-0.3-2.1-2.9-2.5-3.6-0.5c-5.3,13.6-10.6,27.4-15.9,41
	c-1.3-1.6-3.2-2.7-5.4-3c-4.7-0.7-8.4,2.2-11.4,5.6c-5.9-28.5-11.7-57.1-17.6-85.5c-0.3-1.3-2.2-1.9-3.1-0.8
	c-18,21.6-27.7,49.1-27.1,77.2c-2.1-2.7-4.9-5-8.3-6.7c-0.7-0.4-1.6-0.4-2.2,0.3c-3,3.3-5.1,6.8-6.4,10.7
	c-6.6-21.5-13.2-43-19.8-64.5c-0.4-1.2-2.1-2-3.1-0.8c-16.6,20.1-24.4,45.4-22.5,70.9c-5.2-5.5-11.6-9.5-19-11.6
	c-1.2-0.4-2.3,0.6-2.4,1.8c-0.1,3.7-0.3,7.3-0.4,11c-4.2-8.9-8.6-17.7-13.9-26.1c-6.2-9.6-14-20.4-25.1-24.5C1.9,58.4,0.9,58.2,0,58
	v3.9c1.3,0.4,2.7,0.9,4,1.6c9.6,5,16.4,14.9,21.9,23.9c6,9.8,10.9,20.2,15.7,30.7c0.1,0.1,0.1,0.2,0.1,0.3c0.5,0.7,1.3,0.7,2,0.4
	s1.3-0.9,1.3-1.7c0.2-5.4,0.4-10.8,0.6-16.3c7.6,2.7,14,7.4,18.7,14.2c1.3,1.8,3.6,0.6,3.4-1.4C64.3,88.5,71,62.8,86.1,42.5
	c7,22.8,13.9,45.4,21,68.2c0.6,2.1,3.5,1.6,3.6-0.5c0.4-5.6,2.3-10.5,5.9-14.7c4.4,2.6,7.6,6.3,9.3,11.3c0.7,1.9,3.9,1.7,3.6-0.5
	c-2.6-28.5,5.7-57.1,23.3-79.7c5.9,28.5,11.7,57,17.6,85.5c0.4,1.7,2.5,1.6,3.4,0.4c1.5-1.9,3-3.9,5-5.3c1.2-1.1,2.7-1.7,4.3-1.9
	c2.8,0,4.5,1.6,5,4.7c-0.4,2.4,2.7,3.2,3.6,1c5.2-13.3,10.3-26.6,15.5-40c4.4,19.3,17.2,35.9,35.1,45c0.7,0.4,1.7,0.4,2.2-0.3
	c2.2-2.5,5.3-7.9,8.8-8.3c3.9-0.5,8.9,0.9,12.9,1.1c8.6,0.5,17.3,0.6,25.9,0.3c1.7-0.1,2.3-1.9,1.3-3.2
	c-9.4-11.6-17.4-24.2-23.9-37.7c-3.4-7.3-6.4-14.7-8.9-22.3c-1-3.3-2.1-6.5-2.9-9.9c-1.4-6.2,1.3-11.7,7.8-8.3
	c6.6,3.4,9.7,10.4,13.1,16.5c3.9,7.1,7.9,14.2,11.9,21.3c8.1,14.5,16.2,29.1,24.2,43.7c0.8,1.5,2.9,1,3.4-0.4
	c1.8-5.2,5-9.3,9.6-12.2c3,5.1,6.7,9.5,11.3,13.2c0.9,0.7,2.3,0.8,2.9-0.4c2.7-5.4,5.3-10.7,7.9-16.2c3.6,2.5,7.2,5,10.8,7.6
	c1.3,0.9,2.7-0.3,2.8-1.6c1.8-27.7,13.9-53.9,33.8-73.2c0.1,8.3,0.4,16.5,0.5,24.8c-0.1,1-0.1,2.1,0.1,3.2c0.4,2.1,3.7,1.6,3.6-0.5
	c0-0.9,0-1.8-0.1-2.7c0.6-2.7,3.3-4.8,6.1-5.5c4.2-1,7.9,1.2,10.8,4c5,4.7,8.5,11.2,12.3,16.8c8.4,12.3,16.8,24.6,25.1,36.9
	c0.9,1.3,2.9,1.1,3.4-0.4c1.9-5.6,11.4-6.2,13.7-0.6c0.4,1,1.6,1.9,2.7,1.1c9.1-6.4,21.4-6.1,29.9,1.3c1.3,1.1,3,0.3,3.2-1.3
	c2.2-31.8,7.1-63.4,14.6-94.4c8.7,27.1,17.4,54,26.1,81.1c0.6,1.9,3.7,1.7,3.6-0.5c-0.2-7.1,1.3-13.6,4.7-19.7
	c4.7,5.9,9.4,11.9,14.1,17.7c1.4,1.8,3.7-0.5,2.9-2.2c-2.2-4.7,4.9-6.4,8.2-6.4c4.8,0.1,7.8,3,10.7,6.4c4.8,5.6,9.2,12.2,17,13.3
	c0.9,0.1,2.1-0.2,2.3-1.3c3-17.9,6.2-35.9,9.2-53.9c18.5,12.8,32.2,31.5,38.9,53.1c0.6,1.9,2.9,1.6,3.6,0c1-2.7,3.1-6.4,5.9-7.7
	c3.4-1.6,5,1.3,6.8,4c3.3,4.9,6,10,8.2,15.4c0.5,1.3,2,1.9,3.1,0.8c10.2-10,28.6-6.9,35.1,5.8c0.7,1.3,2.5,1.1,3.2,0
	c19.7-31.9,39.4-63.7,59.1-95.6c-0.1,23.9-0.1,48-0.3,71.9c0,1.7,2.7,2.7,3.5,1c3.2-7,10.8-11.9,18.8-10.2c5.8,1.2,10.2,5.6,12.1,11
	c-0.6,2.3-0.2,4.8,1.6,7.2c1,1.3,3.2,0.1,3.2-1.3c0-2-0.4-4-0.9-5.9c0.7-1.3,1.8-2.5,3-3.3c3.3-2.2,6.5-1.9,9.8,0.4
	c4.6,3.3,6.9,9,9,14c0.6,1.6,2.4,1.8,3.4,0.4c16.8-21.9,26.1-48.7,26.7-76.3c15.5,0.7,16.8,23.3,15.4,34.8
	c-1.6,13.2-3.7,29.4,7.7,39c0.7,0.7,1.9,0.7,2.6,0c4.2-4.1,8.4-8.1,12.6-12.2c3.8,3.6,7.6,7,11.3,10.6c1.1,1,3.3,0.4,3.2-1.3
	c-0.4-5.5,6.4-6,9.8-3.6c2.8,1.9,4.7,5,6.4,7.9c1,1.5,3.6,1,3.5-1c-1-22,3-43.8,11.6-64c8.7,20.2,12.6,42,11.6,64
	c-0.1,1.9,2.5,2.4,3.5,1c1.8-2.8,3.6-6,6.4-7.9c3.4-2.3,10.2-1.8,9.8,3.6c-0.1,1.7,2.1,2.3,3.2,1.3c3.8-3.6,7.6-7,11.3-10.6
	c4.2,4.1,8.4,8.1,12.6,12.2c0.7,0.7,1.9,0.7,2.6,0c11.4-9.6,9.2-25.8,7.7-39c-1.3-11.4-0.1-34.1,15.4-34.8
	c0.6,27.6,9.9,54.3,26.7,76.3c1,1.3,2.7,1.1,3.4-0.4c2-5,4.4-10.7,9-14c3.2-2.3,6.4-2.7,9.8-0.4c1.1,0.7,2.3,1.9,3,3.3
	c-0.5,1.9-0.9,3.9-0.9,5.9c0,1.5,2.1,2.6,3.2,1.3c1.8-2.3,2.1-4.8,1.6-7.2c1.9-5.3,6.3-9.8,12.1-11c7.9-1.6,15.5,3.2,18.8,10.2
	c0.8,1.7,3.5,0.8,3.5-1c-0.1-23.9-0.1-48-0.3-71.9c19.7,31.9,39.4,63.7,59.1,95.6c0.7,1.1,2.5,1.3,3.2,0
	c6.4-12.7,24.9-15.8,35.1-5.8c1.1,1,2.6,0.4,3.1-0.8c2.2-5.4,5-10.5,8.2-15.4c1.8-2.7,3.4-5.7,6.8-4c2.7,1.3,4.7,5,5.9,7.7
	c0.7,1.6,3,1.9,3.6,0c6.7-21.6,20.4-40.2,38.9-53.1c3,17.9,6.2,35.9,9.2,53.9c0.1,1,1.3,1.4,2.3,1.3c7.9-1.3,12.2-7.7,17-13.3
	c3-3.5,5.9-6.4,10.7-6.4c3.3-0.1,10.5,1.6,8.2,6.4c-0.8,1.8,1.5,4,2.9,2.2c4.7-5.9,9.4-11.9,14.1-17.7c3.4,6.1,5,12.6,4.7,19.7
	c-0.1,2.1,3,2.4,3.6,0.5c8.7-27.1,17.4-54,26.1-81.1c7.5,31,12.4,62.5,14.6,94.4c0.1,1.6,1.9,2.4,3.2,1.3c8.5-7.3,20.8-7.7,29.9-1.3
	c1.1,0.7,2.3-0.1,2.7-1.1c2.3-5.7,11.9-5,13.7,0.6c0.5,1.6,2.4,1.8,3.4,0.4c8.4-12.3,16.8-24.6,25.1-36.9
	c3.8-5.6,7.3-12.1,12.3-16.8c3-2.7,6.7-5,10.8-4c2.7,0.7,5.5,2.7,6.1,5.5c0,0.9,0,1.8-0.1,2.7c-0.1,2.1,3.3,2.5,3.6,0.5
	c0.2-1.1,0.2-2.1,0.1-3.2c0.1-8.3,0.4-16.5,0.5-24.8c19.9,19.3,32,45.4,33.8,73.2c0.1,1.3,1.6,2.4,2.8,1.6c3.6-2.5,7.2-5,10.8-7.6
	c2.7,5.4,5.3,10.7,7.9,16.2c0.6,1.2,2.1,1,2.9,0.4c4.7-3.7,8.4-8.1,11.3-13.2c4.5,3,7.7,7,9.6,12.2c0.5,1.4,2.6,1.9,3.4,0.4
	c8.1-14.5,16.2-29.1,24.2-43.7c3.9-7.1,7.9-14.2,11.9-21.3c3.4-6.2,6.5-13.1,13.1-16.5c6.5-3.4,9.2,2.1,7.8,8.3
	c-0.7,3.3-1.9,6.6-2.9,9.9c-2.4,7.6-5.4,15-8.9,22.3c-6.4,13.5-14.5,26.1-23.9,37.7c-1,1.3-0.4,3.1,1.3,3.2
	c8.6,0.3,17.3,0.2,25.9-0.3c4-0.2,9-1.6,12.9-1.1c3.6,0.4,6.7,5.8,8.8,8.3c0.6,0.7,1.6,0.7,2.2,0.3c17.9-9,30.6-25.6,35.1-45
	c5.2,13.3,10.3,26.6,15.5,40c0.9,2.2,4,1.4,3.6-1c0.4-3.1,2.1-4.7,5-4.7c1.7,0.1,3.1,0.8,4.3,1.9c2,1.4,3.6,3.4,5,5.3
	c0.9,1.1,3,1.3,3.4-0.4c5.9-28.5,11.7-57,17.6-85.5c17.6,22.5,25.9,51.2,23.3,79.7c-0.2,2.2,3,2.4,3.6,0.5c1.7-5,4.9-8.7,9.3-11.3
	c3.6,4.2,5.5,9.1,5.9,14.7c0.1,2.1,3,2.5,3.6,0.5c7-22.8,13.9-45.4,21-68.2c15,20.2,21.7,46,18.3,71.1c-0.3,2.1,2.1,3.3,3.4,1.4
	c4.7-6.7,11-11.5,18.7-14.2c0.2,5.4,0.4,10.8,0.6,16.3c0,0.7,0.6,1.4,1.3,1.7c0.7,0.3,1.5,0.3,2-0.4c0.1-0.1,0.1-0.2,0.1-0.3
	c4.8-10.5,9.7-20.9,15.7-30.7c5.6-9,12.3-18.9,21.9-23.9c1.3-0.7,2.7-1.3,4-1.6V58C1918.8,58.2,1917.9,58.4,1917,58.8z"/>
</svg>
