<?xml version="1.0" encoding="utf-8"?>
<!-- Generator: Adobe Illustrator 27.9.6, SVG Export Plug-In . SVG Version: 9.03 Build 54986)  -->
<svg version="1.1" id="Calque_1" xmlns="http://www.w3.org/2000/svg" xmlns:xlink="http://www.w3.org/1999/xlink" x="0px" y="0px"
	 viewBox="0 0 744.6 328.7" style="enable-background:new 0 0 744.6 328.7;" xml:space="preserve">
<style type="text/css">
	.st0{stroke:#000000;stroke-width:6;stroke-miterlimit:10;}
	.st1{fill:#F8B22D;stroke:#000000;stroke-width:6;stroke-miterlimit:10;}
</style>
<g>
	<path class="st0" d="M92.6,325.7c-5.9,0-10.6-1.5-14.2-4.6c-3.6-3.1-5.4-7.1-5.4-12.1c0-1.9,0.2-3.6,0.7-5.3c0.4-1.7,1-3.3,1.5-4.8
		c0.6-1.5,1.1-3,1.5-4.5s0.7-3,0.7-4.6c0-0.8-0.1-1.4-0.3-1.9c-0.2-0.5-0.6-0.9-1.2-1.3c-0.6-0.3-1.4-0.7-2.6-1
		c-1.1-0.3-2.6-0.6-4.3-1c-7.5-1.5-14.6-3.8-21.3-6.9c-6.8-3.1-12.7-7.2-17.9-12.1c-5.2-4.9-9.2-10.7-12.3-17.3
		c-3-6.6-4.6-14.1-4.6-22.3c0-6.6,1-12.6,3.1-18.2c2.1-5.5,4.9-10.3,8.5-14.4c3.6-4.1,7.8-7.2,12.8-9.5c5-2.3,10.3-3.4,16.1-3.4
		c3.2,0,5.6,0.4,7.1,1.2c1.5,0.8,2.2,2,2.2,3.7c0,1-0.2,2-0.7,3.1c-0.4,1.1-0.9,2.2-1.5,3.5c-0.5,1.2-1,2.5-1.5,3.9
		c-0.4,1.4-0.7,2.8-0.7,4.4c0,2.4,0.6,4.6,1.7,6.6c1.1,2.1,2.7,3.8,4.6,5.3c2,1.5,4.3,2.6,7,3.5c2.7,0.8,5.6,1.3,8.8,1.3
		c3.2,0,6.2-0.4,8.9-1.3c2.7-0.9,5-2.1,6.9-3.7c1.9-1.6,3.4-3.4,4.5-5.6c1.1-2.2,1.6-4.6,1.6-7.2c0-3.9-1.1-7.4-3.4-10.4
		c-2.3-3-5.2-5.9-8.9-8.6c-3.7-2.7-7.9-5.3-12.6-7.7c-4.7-2.5-9.5-5-14.4-7.7c-4.9-2.6-9.7-5.5-14.4-8.6s-8.9-6.6-12.6-10.4
		c-3.7-3.9-6.6-8.3-8.9-13.2c-2.3-4.9-3.4-10.5-3.4-16.9c0-6.7,1.3-13,3.8-18.9c2.5-5.9,6.1-11.2,10.6-15.9
		c4.5-4.7,9.9-8.6,16.2-11.7c6.3-3.1,13.1-5.2,20.5-6.2c3.8-0.6,6.8-1.3,8.8-2.1c2.1-0.8,3.6-1.7,4.5-2.7c0.9-1,1.5-2,1.6-2.9
		c0.1-1,0.2-1.9,0.2-2.6c0-9.8,1.5-17,4.4-21.6c2.9-4.6,7.6-6.8,13.8-6.8c2.6,0,5.1,0.4,7.4,1.1c2.3,0.7,4.3,1.7,6,3
		c1.7,1.3,3.1,2.8,4,4.5c1,1.7,1.5,3.6,1.5,5.5c0,1.8-0.3,3.5-1,5.3c-0.7,1.8-1.4,3.5-2.2,5.2c-0.8,1.7-1.5,3.3-2.2,4.9
		c-0.7,1.5-1,2.9-1,4.2c0,1.6,0.6,2.9,1.8,3.9s2.7,1.9,4.6,2.6c1.9,0.7,3.9,1.5,6.3,2.2c2.3,0.7,4.6,1.6,7,2.6
		c4.4,1.9,8.4,4.2,12,7.1c3.6,2.8,6.7,6,9.3,9.5c2.6,3.5,4.6,7.2,6,11.2c1.4,4,2.1,8,2.1,12.1c0,5-0.9,9.3-2.6,13
		c-1.8,3.7-4.2,6.7-7.3,9s-6.7,4.1-10.8,5.2c-4.1,1.1-8.5,1.7-13.1,1.7c-1.5,0-3-0.2-4.7-0.5c-1.7-0.3-2.5-1.4-2.5-3.2
		c0-0.8,0.2-1.6,0.5-2.6c0.3-0.9,0.7-1.9,1.2-2.9s0.8-2.2,1.2-3.4c0.3-1.2,0.5-2.5,0.5-3.9c0-2.3-0.5-4.4-1.6-6.3
		c-1.1-2-2.6-3.7-4.5-5.2c-1.9-1.5-4.2-2.6-6.8-3.5c-2.6-0.8-5.4-1.3-8.5-1.3c-5.8,0-10.4,1.4-13.8,4.3c-3.4,2.9-5.1,6.7-5.1,11.6
		c0,4.1,1.3,7.8,3.9,10.9c2.6,3.1,6,6,10.2,8.7c4.2,2.6,9,5.2,14.3,7.7c5.4,2.5,10.9,5.2,16.6,7.9c5.6,2.8,11.2,6,16.6,9.5
		c5.4,3.5,10.2,7.6,14.3,12.3c4.2,4.7,7.6,10.1,10.2,16.3c2.6,6.2,3.9,13.3,3.9,21.5c0,9.3-1.7,18-5.2,26.1
		c-3.5,8.1-8.3,15.2-14.6,21.4c-6.2,6.2-13.7,11.2-22.3,15.2c-8.6,3.9-18.2,6.4-28.5,7.5c-1.7,0.2-3,0.4-4,0.6
		c-1,0.2-1.8,0.5-2.4,0.9c-0.6,0.4-1,0.9-1.2,1.5c-0.2,0.6-0.3,1.4-0.3,2.5c0,2.2,0.3,4.2,1,6.1c0.6,1.9,1.3,3.8,2.1,5.5
		s1.4,3.5,2,5.2c0.6,1.7,0.9,3.3,0.9,5c0,3.7-1.5,6.7-4.5,9C101.6,324.5,97.6,325.7,92.6,325.7z"/>
	<path class="st0" d="M258.6,295.9c-8.1,0-15.1-0.9-21-2.7c-5.8-1.8-10.7-4.3-14.7-7.6s-7.1-7.1-9.4-11.7c-2.3-4.6-4.1-9.6-5.3-15.1
		c-1.2-5.5-2-11.4-2.4-17.6c-0.3-6.2-0.5-12.7-0.5-19.4c0-14.8,0.3-29.5,0.9-44.1c0.6-14.6,0.9-29.3,0.9-44c0-7.1-0.5-14.1-1.4-21
		c-0.9-7-2.2-13.9-3.8-20.9c-0.5-2.2-1.1-4-1.8-5.7s-1.4-3.2-2.1-4.6c-0.7-1.5-1.3-3-1.8-4.6c-0.5-1.6-0.7-3.6-0.7-5.8
		c0-5.9,1.8-10.6,5.5-14.2c3.7-3.6,8.5-6.3,14.5-8.2c6-1.9,12.8-3.2,20.5-3.8c7.7-0.6,15.5-0.9,23.4-0.9c16.6,0,31.5,2.9,44.7,8.8
		c13.2,5.9,24.4,14.3,33.6,25.4c9.2,11,16.2,24.5,21.1,40.4c4.9,15.9,7.4,33.8,7.4,53.9c0,19.6-1.9,37.1-5.8,52.4
		c-3.9,15.3-10.1,28.2-18.6,38.8c-8.5,10.5-19.6,18.6-33.3,24.1C294.7,293.2,278.1,295.9,258.6,295.9z M305,174
		c0-4.7-0.4-9.6-1.3-14.8c-0.9-5.2-2.3-10.1-4.1-14.9c-1.9-4.8-4.2-9.3-7.1-13.4c-2.8-4.1-6.3-7.5-10.3-10.2c-1-0.7-2.1-1.3-3.2-2
		c-1.2-0.6-2.3-1-3.4-1c-1,0-1.8,0.6-2.4,1.9c-0.6,1.3-1,2.9-1.3,4.9c-0.3,2-0.5,4.1-0.6,6.5c-0.1,2.4-0.1,4.7-0.1,7
		c0,2.3,0.1,4.3,0.1,6.2c0,1.9,0.1,3.2,0.1,4c0,1.4,0,3.6-0.1,6.7c-0.1,3.1-0.1,6.7,0,10.7c0,4.1,0.1,8.5,0.2,13.2
		c0.1,4.7,0.3,9.4,0.5,14.2c0.2,4.8,0.6,9.3,1,13.8c0.4,4.4,1,8.3,1.8,11.7s1.6,6.1,2.6,8.1c1,2,2.3,3,3.8,3c2.8,0,5.4-1.1,7.7-3.2
		c2.3-2.2,4.2-5,6-8.4c1.7-3.4,3.2-7.3,4.5-11.5c1.3-4.2,2.3-8.4,3.2-12.5c0.8-4.1,1.4-8,1.8-11.6C304.8,178.8,305,176,305,174z"/>
	<path class="st0" d="M528.9,296.4c-3.7,0-7-0.5-9.9-1.5c-2.8-1-5.4-2.2-7.7-3.7c-2.3-1.5-4.5-3-6.5-4.7c-2.1-1.7-4.1-3.2-6.3-4.7
		c-2.1-1.5-4.4-2.7-6.8-3.7c-2.5-1-5.2-1.5-8.4-1.5c-4.7,0-9.3,1-13.7,3c-4.4,2-8.9,4.2-13.4,6.6c-4.5,2.4-9.2,4.6-14,6.6
		c-4.8,2-10,3-15.5,3c-13.8,0-24.4-7.7-31.6-23c-7.3-15.3-10.9-37.5-10.9-66.7c0-1.5,0-4.1,0-8c0-3.9,0-8.6,0.1-14.1
		c0.1-5.5,0.2-11.7,0.4-18.5c0.1-6.8,0.4-13.9,0.8-21.1c0.2-3.7,0.4-7.7,0.7-11.9c0.2-4.2,0.4-7.8,0.4-10.7c0-5.6-0.4-10.9-1.3-16
		c-0.9-5.1-1.9-9.8-2.9-14.3c-1.1-4.5-2.1-8.7-2.9-12.5s-1.3-7.4-1.3-10.6c0-7.1,2.4-12.6,7.3-16.7c4.9-4.1,11.6-6.1,20.2-6.1
		c7.5,0,13.7,1.5,18.8,4.5c5.1,3,9.3,6.8,12.6,11.6c3.3,4.7,5.8,9.9,7.6,15.7c1.8,5.7,3,11.4,3.8,16.9c0.8,5.5,1.3,10.6,1.4,15.2
		c0.1,4.6,0.2,8.1,0.2,10.4c0,7.7-0.1,14.3-0.2,20c-0.1,5.7-0.3,10.7-0.4,15c-0.1,4.3-0.3,8.1-0.4,11.5c-0.1,3.3-0.2,6.5-0.2,9.6
		c0,13.6,1.6,24.3,4.8,32.1c3.2,7.8,7.6,11.6,13.3,11.6c3.1,0,6-1.3,8.5-3.8c2.5-2.5,4.6-6.3,6.4-11.1s3.1-10.7,4-17.7
		c0.9-6.9,1.4-14.8,1.4-23.6c0-2.5,0-5.1-0.1-7.9c0-2.8-0.1-5.6-0.2-8.3c-0.1-2.7-0.2-5.3-0.2-7.7c-0.1-2.4-0.1-4.4-0.1-6.1
		c0-6.7-0.5-13-1.5-18.8c-1-5.9-2.1-11.4-3.3-16.6c-1.2-5.2-2.3-10.1-3.3-14.6c-1-4.5-1.5-8.7-1.5-12.5c0-8.1,2.5-14.4,7.5-18.8
		c5-4.4,12.1-6.6,21.3-6.6c14.8,0,25.8,6.2,32.9,18.5c7.1,12.4,10.7,31.3,10.7,57c0,4.9-0.1,10.1-0.3,15.6c-0.2,5.5-0.4,11-0.7,16.6
		c-0.3,5.6-0.5,11.1-0.7,16.6c-0.2,5.5-0.3,10.7-0.3,15.7c0,8.4,0.4,16.5,1.1,24.3c0.7,7.8,1.8,15.7,3.3,23.8
		c1.2,6.2,2.3,12,3.5,17.4c1.1,5.4,1.7,10.5,1.7,15.2c0,4.6-0.7,8.8-2,12.4c-1.3,3.7-3.2,6.8-5.6,9.4c-2.4,2.6-5.3,4.6-8.8,6
		C537.1,295.7,533.3,296.4,528.9,296.4z"/>
	<path class="st0" d="M716.1,299.2c-3.3,0-6.1-0.6-8.2-1.9c-2.2-1.3-4.1-2.7-5.7-4.3c-1.7-1.6-3.3-3-4.9-4.3
		c-1.6-1.3-3.6-1.9-5.8-1.9c-2.2,0-4.7,0.6-7.7,1.8c-3,1.2-6.5,2.6-10.4,4c-3.9,1.5-8.3,2.8-13.2,4c-4.9,1.2-10.4,1.8-16.3,1.8
		c-11.7,0-22.2-2.7-31.6-8.1c-9.4-5.4-17.4-13.1-24.1-23.3c-6.6-10.1-11.7-22.3-15.2-36.6c-3.5-14.3-5.3-30.4-5.3-48.1
		c0-21.1,2.5-40.4,7.4-57.9c4.9-17.5,11.8-32.5,20.7-45.1c8.9-12.6,19.5-22.3,31.9-29.3c12.4-7,26-10.4,40.9-10.4
		c9.6,0,18.2,1.5,25.8,4.5c7.6,3,14,7.3,19.3,13c5.2,5.7,9.2,12.7,12,20.9c2.7,8.2,4.1,17.6,4.1,28.1c0,12.4-2.1,21.3-6.3,26.9
		c-4.2,5.5-11,8.3-20.5,8.3c-4.7,0-8.5-0.6-11.3-1.8c-2.8-1.2-5.1-2.7-6.8-4.7c-1.7-2-2.8-4.2-3.5-6.7c-0.7-2.5-1.2-5-1.6-7.6
		c-0.4-2.6-0.8-5.1-1.2-7.6c-0.4-2.5-1.1-4.7-2-6.7c-0.9-2-2.3-3.5-4.2-4.7c-1.9-1.2-4.5-1.8-7.9-1.8c-5.4,0-10.4,1.6-14.9,4.7
		c-4.5,3.1-8.4,7.5-11.6,13.1c-3.2,5.6-5.7,12.3-7.5,20.2c-1.8,7.9-2.6,16.5-2.6,25.9c0,10.4,1.1,20.1,3.2,29
		c2.2,8.9,5.2,16.7,9,23.2c3.8,6.5,8.4,11.6,13.6,15.3c5.2,3.7,10.9,5.5,17,5.5c4.7,0,8.1-1.3,10.2-3.8c2.1-2.5,3.2-6.6,3.2-12.3
		c0-7.1-1.4-12.8-4.1-17.1c-2.7-4.3-6.4-6.5-10.9-6.5c-2.6,0-5.1,0.5-7.7,1.4c-2.6,0.9-4.8,1.4-6.7,1.4c-3.2,0-5.9-2-7.9-6
		c-2.1-4-3.1-9.1-3.1-15.4c0-5.1,0.7-9.3,2.1-12.6c1.4-3.3,3.3-5.9,5.7-7.9c2.4-2,5.1-3.4,8.3-4.3c3.2-0.9,6.6-1.5,10.2-1.8
		c3.6-0.3,7.2-0.4,10.9-0.3c3.7,0.1,7.3,0.1,10.8,0.1c15.9,0,27.5,2.3,35,6.8c7.4,4.6,11.1,11.8,11.1,21.7c0,2.7-0.2,5.7-0.7,8.8
		c-0.4,3.1-1,6.4-1.5,9.6c-0.6,3.3-1.1,6.7-1.5,10.2c-0.4,3.5-0.7,6.9-0.7,10.4c0,4.8,0.4,9.5,1.3,14.2c0.9,4.7,1.9,9.1,3,13.4
		c1.1,4.3,2.1,8.3,3,12.2c0.9,3.9,1.3,7.5,1.3,10.8c0,3.9-0.7,7.6-2.1,11.1c-1.4,3.5-3.2,6.5-5.5,9.2c-2.3,2.6-5,4.8-8.1,6.3
		C722.8,298.4,719.6,299.2,716.1,299.2z"/>
</g>
<g>
	<path class="st1" d="M82.6,304.7c-5.9,0-10.6-1.5-14.2-4.6c-3.6-3.1-5.4-7.1-5.4-12.1c0-1.9,0.2-3.6,0.7-5.3c0.4-1.7,1-3.3,1.5-4.8
		c0.6-1.5,1.1-3,1.5-4.5s0.7-3,0.7-4.6c0-0.8-0.1-1.4-0.3-1.9c-0.2-0.5-0.6-0.9-1.2-1.3c-0.6-0.3-1.4-0.7-2.6-1
		c-1.1-0.3-2.6-0.6-4.3-1c-7.5-1.5-14.6-3.8-21.3-6.9c-6.8-3.1-12.7-7.2-17.9-12.1c-5.2-4.9-9.2-10.7-12.3-17.3
		C4.5,220.7,3,213.3,3,205c0-6.6,1-12.6,3.1-18.2c2.1-5.5,4.9-10.3,8.5-14.4c3.6-4.1,7.8-7.2,12.8-9.5c5-2.3,10.3-3.4,16.1-3.4
		c3.2,0,5.6,0.4,7.1,1.2c1.5,0.8,2.2,2,2.2,3.7c0,1-0.2,2-0.7,3.1c-0.4,1.1-0.9,2.2-1.5,3.5c-0.5,1.2-1,2.5-1.5,3.9
		c-0.4,1.4-0.7,2.8-0.7,4.4c0,2.4,0.6,4.6,1.7,6.6c1.1,2.1,2.7,3.8,4.6,5.3c2,1.5,4.3,2.6,7,3.5c2.7,0.8,5.6,1.3,8.8,1.3
		c3.2,0,6.2-0.4,8.9-1.3c2.7-0.9,5-2.1,6.9-3.7c1.9-1.6,3.4-3.4,4.5-5.6c1.1-2.2,1.6-4.6,1.6-7.2c0-3.9-1.1-7.4-3.4-10.4
		c-2.3-3-5.2-5.9-8.9-8.6c-3.7-2.7-7.9-5.3-12.6-7.7c-4.7-2.5-9.5-5-14.4-7.7c-4.9-2.6-9.7-5.5-14.4-8.6s-8.9-6.6-12.6-10.4
		c-3.7-3.9-6.6-8.3-8.9-13.2c-2.3-4.9-3.4-10.5-3.4-16.9c0-6.7,1.3-13,3.8-18.9c2.5-5.9,6.1-11.2,10.6-15.9
		c4.5-4.7,9.9-8.6,16.2-11.7c6.3-3.1,13.1-5.2,20.5-6.2c3.8-0.6,6.8-1.3,8.8-2.1c2.1-0.8,3.6-1.7,4.5-2.7c0.9-1,1.5-2,1.6-2.9
		c0.1-1,0.2-1.9,0.2-2.6c0-9.8,1.5-17,4.4-21.6C87.5,5.3,92.1,3,98.4,3c2.6,0,5.1,0.4,7.4,1.1c2.3,0.7,4.3,1.7,6,3
		c1.7,1.3,3.1,2.8,4,4.5c1,1.7,1.5,3.6,1.5,5.5c0,1.8-0.3,3.5-1,5.3c-0.7,1.8-1.4,3.5-2.2,5.2c-0.8,1.7-1.5,3.3-2.2,4.9
		c-0.7,1.5-1,2.9-1,4.2c0,1.6,0.6,2.9,1.8,3.9s2.7,1.9,4.6,2.6c1.9,0.7,3.9,1.5,6.3,2.2c2.3,0.7,4.6,1.6,7,2.6
		c4.4,1.9,8.4,4.2,12,7.1c3.6,2.8,6.7,6,9.3,9.5c2.6,3.5,4.6,7.2,6,11.2c1.4,4,2.1,8,2.1,12.1c0,5-0.9,9.3-2.6,13
		c-1.8,3.7-4.2,6.7-7.3,9s-6.7,4.1-10.8,5.2c-4.1,1.1-8.5,1.7-13.1,1.7c-1.5,0-3-0.2-4.7-0.5c-1.7-0.3-2.5-1.4-2.5-3.2
		c0-0.8,0.2-1.6,0.5-2.6c0.3-0.9,0.7-1.9,1.2-2.9s0.8-2.2,1.2-3.4c0.3-1.2,0.5-2.5,0.5-3.9c0-2.3-0.5-4.4-1.6-6.3
		c-1.1-2-2.6-3.7-4.5-5.2c-1.9-1.5-4.2-2.6-6.8-3.5c-2.6-0.8-5.4-1.3-8.5-1.3c-5.8,0-10.4,1.4-13.8,4.3c-3.4,2.9-5.1,6.7-5.1,11.6
		c0,4.1,1.3,7.8,3.9,10.9c2.6,3.1,6,6,10.2,8.7c4.2,2.6,9,5.2,14.3,7.7c5.4,2.5,10.9,5.2,16.6,7.9c5.6,2.8,11.2,6,16.6,9.5
		c5.4,3.5,10.2,7.6,14.3,12.3c4.2,4.7,7.6,10.1,10.2,16.3c2.6,6.2,3.9,13.3,3.9,21.5c0,9.3-1.7,18-5.2,26.1
		c-3.5,8.1-8.3,15.2-14.6,21.4c-6.2,6.2-13.7,11.2-22.3,15.2c-8.6,3.9-18.2,6.4-28.5,7.5c-1.7,0.2-3,0.4-4,0.6
		c-1,0.2-1.8,0.5-2.4,0.9c-0.6,0.4-1,0.9-1.2,1.5c-0.2,0.6-0.3,1.4-0.3,2.5c0,2.2,0.3,4.2,1,6.1c0.6,1.9,1.3,3.8,2.1,5.5
		s1.4,3.5,2,5.2c0.6,1.7,0.9,3.3,0.9,5c0,3.7-1.5,6.7-4.5,9C91.6,303.5,87.6,304.7,82.6,304.7z"/>
	<path class="st1" d="M248.6,274.9c-8.1,0-15.1-0.9-21-2.7c-5.8-1.8-10.7-4.3-14.7-7.6s-7.1-7.1-9.4-11.7c-2.3-4.6-4.1-9.6-5.3-15.1
		c-1.2-5.5-2-11.4-2.4-17.6c-0.3-6.2-0.5-12.7-0.5-19.4c0-14.8,0.3-29.5,0.9-44.1c0.6-14.6,0.9-29.3,0.9-44c0-7.1-0.5-14.1-1.4-21
		c-0.9-7-2.2-13.9-3.8-20.9c-0.5-2.2-1.1-4-1.8-5.7s-1.4-3.2-2.1-4.6c-0.7-1.5-1.3-3-1.8-4.6c-0.5-1.6-0.7-3.6-0.7-5.8
		c0-5.9,1.8-10.6,5.5-14.2c3.7-3.6,8.5-6.3,14.5-8.2c6-1.9,12.8-3.2,20.5-3.8c7.7-0.6,15.5-0.9,23.4-0.9c16.6,0,31.5,2.9,44.7,8.8
		c13.2,5.9,24.4,14.3,33.6,25.4c9.2,11,16.2,24.5,21.1,40.4c4.9,15.9,7.4,33.8,7.4,53.9c0,19.6-1.9,37.1-5.8,52.4
		c-3.9,15.3-10.1,28.2-18.6,38.8c-8.5,10.5-19.6,18.6-33.3,24.1C284.7,272.2,268.1,274.9,248.6,274.9z M295,153
		c0-4.7-0.4-9.6-1.3-14.8c-0.9-5.2-2.3-10.1-4.1-14.9c-1.9-4.8-4.2-9.3-7.1-13.4c-2.8-4.1-6.3-7.5-10.3-10.2c-1-0.7-2.1-1.3-3.2-2
		c-1.2-0.6-2.3-1-3.4-1c-1,0-1.8,0.6-2.4,1.9c-0.6,1.3-1,2.9-1.3,4.9c-0.3,2-0.5,4.1-0.6,6.5c-0.1,2.4-0.1,4.7-0.1,7
		c0,2.3,0.1,4.3,0.1,6.2c0,1.9,0.1,3.2,0.1,4c0,1.4,0,3.6-0.1,6.7c-0.1,3.1-0.1,6.7,0,10.7c0,4.1,0.1,8.5,0.2,13.2
		c0.1,4.7,0.3,9.4,0.5,14.2c0.2,4.8,0.6,9.3,1,13.8c0.4,4.4,1,8.3,1.8,11.7s1.6,6.1,2.6,8.1c1,2,2.3,3,3.8,3c2.8,0,5.4-1.1,7.7-3.2
		c2.3-2.2,4.2-5,6-8.4c1.7-3.4,3.2-7.3,4.5-11.5c1.3-4.2,2.3-8.4,3.2-12.5c0.8-4.1,1.4-8,1.8-11.6C294.8,157.8,295,155,295,153z"/>
	<path class="st1" d="M518.9,275.4c-3.7,0-7-0.5-9.9-1.5c-2.8-1-5.4-2.2-7.7-3.7c-2.3-1.5-4.5-3-6.5-4.7c-2.1-1.7-4.1-3.2-6.3-4.7
		c-2.1-1.5-4.4-2.7-6.8-3.7c-2.5-1-5.2-1.5-8.4-1.5c-4.7,0-9.3,1-13.7,3c-4.4,2-8.9,4.2-13.4,6.6c-4.5,2.4-9.2,4.6-14,6.6
		c-4.8,2-10,3-15.5,3c-13.8,0-24.4-7.7-31.6-23c-7.3-15.3-10.9-37.5-10.9-66.7c0-1.5,0-4.1,0-8c0-3.9,0-8.6,0.1-14.1
		c0.1-5.5,0.2-11.7,0.4-18.5c0.1-6.8,0.4-13.9,0.8-21.1c0.2-3.7,0.4-7.7,0.7-11.9c0.2-4.2,0.4-7.8,0.4-10.7c0-5.6-0.4-10.9-1.3-16
		c-0.9-5.1-1.9-9.8-2.9-14.3c-1.1-4.5-2.1-8.7-2.9-12.5s-1.3-7.4-1.3-10.6c0-7.1,2.4-12.6,7.3-16.7c4.9-4.1,11.6-6.1,20.2-6.1
		c7.5,0,13.7,1.5,18.8,4.5c5.1,3,9.3,6.8,12.6,11.6c3.3,4.7,5.8,9.9,7.6,15.7c1.8,5.7,3,11.4,3.8,16.9c0.8,5.5,1.3,10.6,1.4,15.2
		c0.1,4.6,0.2,8.1,0.2,10.4c0,7.7-0.1,14.3-0.2,20c-0.1,5.7-0.3,10.7-0.4,15c-0.1,4.3-0.3,8.1-0.4,11.5c-0.1,3.3-0.2,6.5-0.2,9.6
		c0,13.6,1.6,24.3,4.8,32.1c3.2,7.8,7.6,11.6,13.3,11.6c3.1,0,6-1.3,8.5-3.8c2.5-2.5,4.6-6.3,6.4-11.1c1.8-4.9,3.1-10.7,4-17.7
		c0.9-6.9,1.4-14.8,1.4-23.6c0-2.5,0-5.1-0.1-7.9c0-2.8-0.1-5.6-0.2-8.3c-0.1-2.7-0.2-5.3-0.2-7.7c-0.1-2.4-0.1-4.4-0.1-6.1
		c0-6.7-0.5-13-1.5-18.8c-1-5.9-2.1-11.4-3.3-16.6c-1.2-5.2-2.3-10.1-3.3-14.6c-1-4.5-1.5-8.7-1.5-12.5c0-8.1,2.5-14.4,7.5-18.8
		c5-4.4,12.1-6.6,21.3-6.6c14.8,0,25.8,6.2,32.9,18.5c7.1,12.4,10.7,31.3,10.7,57c0,4.9-0.1,10.1-0.3,15.6c-0.2,5.5-0.4,11-0.7,16.6
		c-0.3,5.6-0.5,11.1-0.7,16.6c-0.2,5.5-0.3,10.7-0.3,15.7c0,8.4,0.4,16.5,1.1,24.3c0.7,7.8,1.8,15.7,3.3,23.8
		c1.2,6.2,2.3,12,3.5,17.4c1.1,5.4,1.7,10.5,1.7,15.2c0,4.6-0.7,8.8-2,12.4c-1.3,3.7-3.2,6.8-5.6,9.4c-2.4,2.6-5.3,4.6-8.8,6
		C527.1,274.7,523.3,275.4,518.9,275.4z"/>
	<path class="st1" d="M706.1,278.2c-3.3,0-6.1-0.6-8.2-1.9c-2.2-1.3-4.1-2.7-5.7-4.3c-1.7-1.6-3.3-3-4.9-4.3
		c-1.6-1.3-3.6-1.9-5.8-1.9c-2.2,0-4.7,0.6-7.7,1.8c-3,1.2-6.5,2.6-10.4,4c-3.9,1.5-8.3,2.8-13.2,4c-4.9,1.2-10.4,1.8-16.3,1.8
		c-11.7,0-22.2-2.7-31.6-8.1c-9.4-5.4-17.4-13.1-24.1-23.3c-6.6-10.1-11.7-22.3-15.2-36.6c-3.5-14.3-5.3-30.4-5.3-48.1
		c0-21.1,2.5-40.4,7.4-57.9c4.9-17.5,11.8-32.5,20.7-45.1c8.9-12.6,19.5-22.3,31.9-29.3c12.4-7,26-10.4,40.9-10.4
		c9.6,0,18.2,1.5,25.8,4.5c7.6,3,14,7.3,19.3,13c5.2,5.7,9.2,12.7,12,20.9c2.7,8.2,4.1,17.6,4.1,28.1c0,12.4-2.1,21.3-6.3,26.9
		c-4.2,5.5-11,8.3-20.5,8.3c-4.7,0-8.5-0.6-11.3-1.8c-2.8-1.2-5.1-2.7-6.8-4.7c-1.7-2-2.8-4.2-3.5-6.7c-0.7-2.5-1.2-5-1.6-7.6
		c-0.4-2.6-0.8-5.1-1.2-7.6c-0.4-2.5-1.1-4.7-2-6.7c-0.9-2-2.3-3.5-4.2-4.7c-1.9-1.2-4.5-1.8-7.9-1.8c-5.4,0-10.4,1.6-14.9,4.7
		c-4.5,3.1-8.4,7.5-11.6,13.1c-3.2,5.6-5.7,12.3-7.5,20.2c-1.8,7.9-2.6,16.5-2.6,25.9c0,10.4,1.1,20.1,3.2,29
		c2.2,8.9,5.2,16.7,9,23.2c3.8,6.5,8.4,11.6,13.6,15.3c5.2,3.7,10.9,5.5,17,5.5c4.7,0,8.1-1.3,10.2-3.8c2.1-2.5,3.2-6.6,3.2-12.3
		c0-7.1-1.4-12.8-4.1-17.1c-2.7-4.3-6.4-6.5-10.9-6.5c-2.6,0-5.1,0.5-7.7,1.4c-2.6,0.9-4.8,1.4-6.7,1.4c-3.2,0-5.9-2-7.9-6
		c-2.1-4-3.1-9.1-3.1-15.4c0-5.1,0.7-9.3,2.1-12.6c1.4-3.3,3.3-5.9,5.7-7.9c2.4-2,5.1-3.4,8.3-4.3c3.2-0.9,6.6-1.5,10.2-1.8
		c3.6-0.3,7.2-0.4,10.9-0.3c3.7,0.1,7.3,0.1,10.8,0.1c15.9,0,27.5,2.3,35,6.8c7.4,4.6,11.1,11.8,11.1,21.7c0,2.7-0.2,5.7-0.7,8.8
		c-0.4,3.1-1,6.4-1.5,9.6c-0.6,3.3-1.1,6.7-1.5,10.2c-0.4,3.5-0.7,6.9-0.7,10.4c0,4.8,0.4,9.5,1.3,14.2c0.9,4.7,1.9,9.1,3,13.4
		c1.1,4.3,2.1,8.3,3,12.2c0.9,3.9,1.3,7.5,1.3,10.8c0,3.9-0.7,7.6-2.1,11.1c-1.4,3.5-3.2,6.5-5.5,9.2c-2.3,2.6-5,4.8-8.1,6.3
		C712.8,277.4,709.6,278.2,706.1,278.2z"/>
</g>
</svg>
