<?xml version="1.0" encoding="utf-8"?>
<!-- Generator: Adobe Illustrator 27.9.6, SVG Export Plug-In . SVG Version: 9.03 Build 54986)  -->
<svg version="1.1" id="Calque_1" xmlns="http://www.w3.org/2000/svg" xmlns:xlink="http://www.w3.org/1999/xlink" x="0px" y="0px"
	 viewBox="0 0 1784.9 502.5" style="enable-background:new 0 0 1784.9 502.5;" xml:space="preserve">
<style type="text/css">
	.st0{fill:#3C5379;}
	.st1{fill:#52838C;}
	.st2{fill:#ADD3B9;}
</style>
<path class="st0" d="M5,367.2c-0.3,45.1-0.7,90.2-1,135.3h1718.3c3.6-11.3,6.5-22.9,9.1-34.1c17-72.2,33.9-144.4,50.9-216.6
	c-57.8-0.4-90.3-67.1-141.6-93.6c-29.4-15.1-64.4-16.5-93.9-31.5c-42.6-21.7-66.6-68.1-104.5-97.3c-11.1-8.6-24.7-15.9-38.5-13.6
	c-10.6,1.8-19.5,8.9-27.6,15.9c-48.1,41.2-92.1,87-131.4,136.7c-15.5,19.6-36,42.2-60.5,37.1c-21.2-4.5-32.2-27.5-48.6-41.8
	c-27-23.4-68.9-21.2-101.1-5.8c-32.3,15.4-57.9,41.5-85.2,64.6c-4.6,3.9-9.4,7.7-15.1,9.6c-15.6,5.1-31.4-6-44.8-15.5
	c-115.5-82.4-276-93.4-375.7-194.5c-8.2-8.3-16.8-17.7-28.4-19.4c-12.3-1.9-24,5.5-34.4,12.4c-8.6,0-28.7,18.5-36.5,23.3
	c-12.3,7.5-24.7,14.9-37.3,22c-26.1,14.7-52.7,28.5-79.9,41.3c-48.2,22.7-97.9,42.3-148.6,58.6c-25.4,8.1-51,15.5-76.9,21.9
	c-15.9,4-55.1,5.2-64,19.8c-10,16.5-2.1,57.2-2.2,75.9C5.5,307.8,5.2,337.5,5,367.2z"/>
<g>
	<path class="st1" d="M1287.7,117.9c8.6,4.2,18.1,3.3,26.7-6.6c2.5,15.9,13.9,30,30,33.4c0,0,0,0,0,0c15.8,3.4,33.3-4.6,41.1-18.8
		c3.5,10.1,15.7,13.7,26.2,15.3c7.4,1.2,15.1,2.1,22.4,0.1c7.2-2,13.9-7.8,14.8-15.2c4.9,10.8,17.9,15,29.7,16.3
		c8.4,0.9,17.2,0.9,24.9-2.6c7.7-3.5,14-11.1,13.6-19.6c5.5,1.5,11.2,0.8,16.4-1.4c-34.6-23.7-57.3-63.2-91-89.2
		c-11.1-8.6-24.7-15.9-38.5-13.6c-10.6,1.8-19.5,8.9-27.6,15.9C1345,58.6,1315.4,87.3,1287.7,117.9z"/>
</g>
<g>
	<path class="st1" d="M297.4,101.7c-3.5,1.7-7.1,3.3-10.6,4.9c2.7,4,6.4,7.5,11.4,10.2c14.2,7.8,33.9,3.2,43.2-10.1
		c4.1,15.1,19.6,25.5,35.3,26.1c15.6,0.6,30.8-7.2,41.6-18.5c10,11.8,25.5,18.7,40.9,18.3c15.4-0.4,30.5-8.2,39.8-20.6
		c15.2,12.6,35.7,18.4,55.2,15.7c9.8-1.4,20.3-5.8,23.8-15c10.5,7.3,23.8,9.6,36.5,9.6c7.4,0,14.9-0.7,21.8-3.2
		c6.1-2.1,11.6-5.6,16.2-10c-51.3-21.6-99.6-47.4-138.7-86.9c-8.2-8.3-16.8-17.7-28.4-19.4c-12.3-1.9-24,5.5-34.4,12.4
		c-8.6,0-28.7,18.5-36.5,23.3c-12.3,7.5-24.7,14.9-37.3,22C351.2,75.1,324.5,88.9,297.4,101.7z"/>
</g>
<g>
	<path class="st2" d="M559.1,59.8c-16.1-11.1-31.3-23.5-45.3-37.6c-8.2-8.3-16.8-17.7-28.4-19.4c-12.3-1.9-24,5.5-34.4,12.4
		c-8.6,0-28.7,18.5-36.5,23.3c-6.7,4.1-13.4,8.1-20.1,12c3.2,6.9,8.9,12.5,16.4,15.1c11.5,4,25.3-0.3,32.5-10.1
		c3.4,7.8,11.5,13.4,20,13.8c8.5,0.4,17.1-4.3,21.3-11.7c11.3,9.1,29,8.9,40.2-0.4c0.9-0.8,1.9-1.6,3.1-2c1.9-0.6,3.9,0.3,5.8,1.1
		C541.6,59.7,550.6,61.3,559.1,59.8z"/>
</g>
<g>
	<path class="st2" d="M1442.4,29.5c-11.1-8.6-24.7-15.9-38.5-13.6c-10.6,1.8-19.5,8.9-27.6,15.9c-9.8,8.4-19.3,16.9-28.8,25.7
		c3.3,5.7,8.7,10,15.6,10.9c9.6,1.2,19.6-5,22.8-14.1c3.8,7.7,11.9,13.2,20.5,13.8c8.6,0.6,17.4-3.6,22.3-10.7
		c10.8,10.3,27.6,13.9,41.7,8.9c2.2-0.8,4.5-2,6.4-3.5C1466,50.8,1455,39.2,1442.4,29.5z"/>
</g>
<path d="M2.9,315.8c-0.4,51-0.7,101.9-1.1,152.9c-0.1,11.3-0.2,22.6-0.3,33.9h5c0.2-34.6,0.6-69.2,0.8-103.8
	c0.2-24.8,0.4-49.6,0.5-74.3C8,303.9,9,283.2,7.4,262.8c-1.3-16.3-4-33.7-0.7-50c3.5-17.2,20.6-20.3,35.6-23.1
	c15.9-2.9,31.4-5.3,47.1-9.4c23.4-6.2,46.7-13.2,69.7-20.8c45.4-15,90-32.7,133.4-52.8c42.3-19.6,85.6-40.8,124.4-66.8
	c5.3-3.5,10.1-7.7,15.1-11.4c5.1-3.8,12.1-10,18.7-10.8c0.5,0.1,1,0,1.6-0.4c14.5-9.5,30-17.7,45.9-6.1
	c10.3,7.5,18.6,17.9,28.2,26.4c18.1,16,38.2,29.8,59.1,41.8c43.8,25.1,91.4,42.6,138.5,60.4c48.2,18.2,96.8,36.7,140.9,63.7
	c11.4,6.9,21.9,14.9,33.1,22.1c9.2,5.9,20,11.5,31.4,10.2c12.8-1.5,22.6-12.1,31.9-20.2c10.9-9.5,21.6-19.2,32.9-28.3
	c22.3-18,47.3-33.5,76.1-37.5c27.5-3.8,53.4,3.6,72.2,24.4c13.7,15.2,27.2,35.6,50.4,34.5c23.2-1.1,40.3-21.8,53.6-38.5
	c38.1-47.9,80.2-92.4,126.5-132.5c13.2-11.4,27.4-23.9,46.1-18.2c14.6,4.5,26.6,15.3,37.4,25.7c18.3,17.7,33.6,38.1,51.8,55.8
	c18.1,17.8,38.5,30.5,62.9,37.9c26.9,8.2,55.1,12.3,79.2,27.9c36.7,23.9,61.7,65.2,103.2,81.7c8.2,3.3,16.8,5.1,25.5,5.6
	c-11.3,48.3-22.7,96.5-34,144.8c-5.7,24.1-11.2,48.3-17,72.4c-2.5,10.4-5.2,20.9-8.4,31.1h5.3c2.7-8.8,5-17.6,7.1-26.1
	c12.1-49.3,23.3-98.8,34.9-148.2c5.9-25.2,11.9-50.4,17.8-75.6c0.4-1.6-0.7-3.1-2.4-3.2c-47.7-1.1-78.4-45.9-111.9-73.7
	c-19.3-16-40.2-26-64.3-32.5c-28.3-7.6-56.1-13.8-79.5-32.5c-20.2-16.1-36.1-36.7-53.5-55.5c-15.6-16.9-36.1-39.7-60.5-42
	c-11.9-1.1-22.2,4.1-31.4,11.2c-12.1,9.3-23.3,19.9-34.5,30.2c-22.8,21.1-44.7,43.3-65.4,66.5c-10,11.2-19.8,22.6-29.2,34.3
	c-8.7,10.7-16.9,21.9-26.8,31.4c-10.2,9.8-23.3,18.6-38.1,16.6c-13.4-1.8-22.9-11.8-31.3-21.5c-15.6-18-30.7-32.7-55.2-36.8
	c-23.3-3.9-47.6,1-68.7,11.3c-24.8,12.1-45.8,30.6-66.3,48.6c-11.6,10.2-25.3,26.9-42,25.6c-14.9-1.1-27.6-12.8-39.4-20.8
	c-41.9-28.5-89-48.2-136.2-66.3C699.7,125,650.4,108,604.3,83.9c-23-12-45.2-25.8-65.2-42.2c-10-8.2-19.1-17.1-28.2-26.1
	c-7.4-7.4-15.9-14.5-26.8-15.5c-12.5-1.1-23.8,6-33.8,12.6c-12.6,1.6-23.7,14.2-33.4,21.1c-18.1,13-38.7,23.4-58.3,34
	c-44.2,24-89.9,45.3-136.7,63.7c-48,18.9-97.2,34.8-147.2,47.4c-14.6,3.7-29.8,4.5-44.4,8.2C19.1,190,7.5,194.3,3.3,206
	c-5.3,14.8-3,32.4-1.8,47.6C3.3,274.4,3.1,295,2.9,315.8z"/>
</svg>
