<?xml version="1.0" encoding="utf-8"?>
<!-- Generator: Adobe Illustrator 27.9.6, SVG Export Plug-In . SVG Version: 9.03 Build 54986)  -->
<svg version="1.1" id="Calque_1" xmlns="http://www.w3.org/2000/svg" xmlns:xlink="http://www.w3.org/1999/xlink" x="0px" y="0px"
	 viewBox="0 0 1570.1 329.6" style="enable-background:new 0 0 1570.1 329.6;" xml:space="preserve">
<style type="text/css">
	.st0{fill:#B5E445;}
	.st1{fill:#9BC437;}
</style>
<g>
	<path class="st0" d="M52.6,167.9c10.3,35.4,16.3,72.1,17.8,108.9c0.7,16.4,2.7,36.4-0.6,52.8h237.6c6.4-65.8,27.4-130.1,61.2-186.9
		c-49.6,32.1-85.3,85.4-94.9,143.7c-18.4-89.1-11.8-183.2,18.8-268.8C228.4,88,202.4,189,216.4,283.1c-9.7-48-19.4-96.4-37.4-142
		c-18-45.6-44.8-88.8-83.4-119c41.2,82.4,44.3,178,45.9,270.2c-9.9-46-23.9-91.4-46.2-132.8C73,118.2,42,80.8,2.5,55.3c0,0,0,0,0,0
		C24.3,90.3,41.1,128.3,52.6,167.9z"/>
	<g>
		<path class="st1" d="M69.7,329.6h237.6c4.3-43.9,15-87.1,31.8-127.8c-11.2,1.3-22.3,2.5-33.5,3.7c-16.1,24.4-27.2,52.1-31.9,80.9
			c-5.2-25.1-8.4-50.7-9.6-76.3c-17,2-34,4.2-50.9,6.8c-1,22.1,0.1,44.4,3.3,66.2c-4.3-21.6-8.7-43.2-13.8-64.6
			c-21,3.5-41.9,7.7-62.8,13.1c0.9,20.3,1.3,40.5,1.6,60.6c-4.1-19.2-9-38.3-14.9-57c-19.5,5.5-38.8,11.7-57.8,18.7
			c0.7,7.6,1.2,15.2,1.5,22.8C71,293.2,73,313.2,69.7,329.6z"/>
	</g>
	<path d="M0.4,56.5C0.4,56.5,0.4,56.5,0.4,56.5C18,85,32.5,115.4,43.4,147c11.4,33.1,19,67.5,22.5,102.4c1.7,16.5,2.5,33.1,3,49.6
		c0.3,10,0.6,20.7-1.8,30.6h5.2c0.8-4.1,1.2-8.3,1.5-12.4c0.5-8,0.3-16-0.1-23.9c-0.4-7.8-0.7-15.7-1.2-23.5
		c-2-35-8-69.8-17.8-103.5c-9.3-31.8-22-62.6-37.9-91.6c-2-3.6-4-7.2-6.1-10.8c25,18,46.3,40.8,63.7,66.2
		c21.1,30.6,36.5,64.7,48,100c6.7,20.7,12.2,41.8,16.8,63c0.6,2.8,5,2.1,4.9-0.7c-0.6-36.5-1.5-73-4.8-109.3
		c-3.3-35.8-8.9-71.5-19.3-105.9c-4.7-15.6-10.4-30.9-17.2-45.7c23.8,20.9,42.8,46.9,57.6,74.9c18.2,34.5,29.9,71.9,39.1,109.6
		c5.5,22.5,10,45.2,14.6,67.9c0.3,1.3,1.8,2.1,3.1,1.7c1.4-0.4,1.9-1.7,1.7-3.1c-5.4-36.4-4.8-73.8,1.8-110
		c6.5-36.1,18.9-71.2,37.3-103.1c8.2-14.2,17.6-27.8,28.1-40.4c-9.8,29.8-16.7,60.6-20.8,91.7c-4.6,35.4-5.5,71.3-2.5,107
		c1.7,20,4.5,39.9,8.6,59.5c0.5,2.3,4.4,2.4,4.8,0c3.7-22.5,11.3-44.3,22.1-64.4c10.8-20,24.8-38.3,41.3-53.9
		c6.7-6.4,13.8-12.3,21.3-17.7c-14.1,25-25.7,51.4-34.8,78.6c-10.3,30.7-17.2,62.6-20.7,94.8c-0.2,1.7-0.4,3.4-0.5,5.1h5
		c2.4-24.9,7-49.6,13.5-73.7c8.5-31.5,20.5-62,35.6-90.9c3.7-7.1,7.6-14.1,11.7-21c1.2-2.1-1.3-4.8-3.4-3.4
		c-19.6,12.7-37.1,28.6-51.7,46.9c-14.5,18.2-26.1,38.5-34.2,60.2c-3.1,8.4-5.7,17-7.7,25.7c-5.5-30.7-8.1-61.9-7.7-93.1
		c0.4-35.2,4.5-70.3,12.2-104.6c4.4-19.4,10-38.6,16.7-57.4c0.8-2.4-2.5-4.2-4.2-2.4c-25.1,27.7-44.6,60.1-58,94.9
		c-13.5,35-20.9,72.2-22.2,109.7c-0.3,7-0.3,14-0.1,21.1c-5.8-26.8-12.4-53.5-21.1-79.5c-11.8-34.9-27.6-68.8-49.9-98.3
		c-12.2-16.1-26.1-30.8-42-43.3c-2.2-1.7-5.3,0.4-3.9,3c15.9,31.9,26.2,66.2,32.8,101.2c6.7,35.4,9.6,71.3,11.1,107.2
		c0.5,12.2,0.9,24.5,1.1,36.7c-7.6-30.3-17.3-60.2-30.3-88.6c-15-32.6-34.5-63.3-59.4-89.3c-13.5-14.2-28.6-26.9-45-37.5
		c-1.1-0.7-2.4-0.3-3.1,0.6c-0.6,0.6-0.9,1.5-0.5,2.5C0.2,56.3,0.3,56.4,0.4,56.5z"/>
	<path class="st0" d="M1193,118.1c39.4,34,64.9,83.7,69.5,135.6c-39-78.9-130.2-128.4-217.6-118.1c26.1,6.5,50.9,18,73.1,33.2
		c38.8,26.7,69.8,64.9,87.8,108.5c6.4,15.6,7.3,35.7,12.1,52.3h165.4c2.4-21.6,6.2-43,14.2-63.1c11.2-28.1,31.8-53.7,60.1-64.2
		c22.6-8.4,47.5-6.4,71.5-4c13.6,1.4,27.9,3.2,38.6,11.6c-25.1-26-60.6-41.8-96.7-43.1c-36.1-1.3-72.6,11.9-99.6,35.9
		c8.4-82.1,67.9-150,133.3-200.3c-44.2,4.4-85.6,25.1-120,53.2c-23.4,19.1-44.3,42.2-56.4,69.9c-10.2,23.6-13.5,50.8-6.6,75.3
		c-20.7-52.8-58.8-98.7-107-128.6c-52.1-32.2-115.6-45.6-176.2-37c38.1,8.1,72.6,28.1,105.7,48.6C1161.1,94.5,1178,105.2,1193,118.1
		z"/>
	<g>
		<path class="st1" d="M1217.9,329.6h165.4c2.4-21.6,6.2-43,14.2-63.1c11.2-28.1,31.8-53.7,60.1-64.2c5.6-2.1,11.3-3.5,17.1-4.5
			c-1.5-3.1-2.9-6.3-4.4-9.5c-3.3-7.2-6.7-14.4-10.4-21.4c-32.4,1.5-64.2,14.3-88.4,35.9c3.3-32.2,14.4-62.1,30.7-89.7
			c-16.8-6.5-35.2-9.7-53.1-11.7c-2.2-0.3-4.5-0.5-6.7-0.7c-5.4,7.9-10.1,16.2-13.9,25c-10.2,23.6-13.5,50.8-6.6,75.3
			c-13.6-34.5-34.5-66.1-61-92.2c-17.2,7.2-32.2,18.5-46.4,30.8c27.2,31.9,44.5,72.3,48.2,114.1c-17.5-35.4-45.5-64.8-78.9-85.6
			c-6.1,6.2-11.8,12.8-16.5,20.1c-3.3,5.1-5.9,10.5-8.2,16c19.8,21.4,35.8,46.2,46.9,73.1C1212.2,292.9,1213.1,313,1217.9,329.6z"/>
	</g>
	<path d="M1037.8,37.9c22.1,4.8,43.1,13.5,63.1,23.9c20.1,10.5,39.6,22.5,58.6,34.8c18.4,11.9,35.7,25.2,50.3,41.6
		c13.3,15,24.3,32,32.7,50.2c7.6,16.6,13,34.3,15.9,52.4c-15.2-26-36.1-48.5-60.5-66.2c-28-20.3-60.8-34.2-94.9-39.9
		c-19.2-3.2-38.8-3.9-58.1-1.6c0,0-0.1,0-0.1,0c-1.8,0.1-2.8,2.1-2.2,3.6c0.3,0.8,0.9,1.4,1.9,1.4c32.1,8.1,62.1,23.6,87.7,44.5
		c23.6,19.3,43.6,43,58.6,69.6c7.5,13.2,14.1,27.1,17.4,42c2.5,11.7,3.7,23.9,7.1,35.5h5.1c-3.4-11.1-4.6-23.1-6.8-34.3
		c-3-14.6-8.9-28.1-15.9-41.2c-14.3-26.6-33.5-50.6-56.3-70.4c-24-20.8-52-37.1-82.4-46.8c29.2-1.3,58.4,3.8,85.7,14.4
		c31.7,12.2,60.6,31.8,83.5,56.8c12.9,14,23.7,29.8,32.2,46.8c1.1,2.2,4.9,1.2,4.7-1.3c-3.7-40.8-19.8-80.1-45.6-111.9
		c-13.8-17-30.4-31.2-48.4-43.5c-19.3-13.2-39.5-25.5-60-36.7c-18.7-10.2-38.2-19.2-58.6-25.2c45-3.9,91.1,4.1,132.2,22.8
		c42,19.2,78.4,49.7,104.9,87.4c12.2,17.4,22.4,36.2,30.1,56c1.2,4,2.6,7.9,4.3,11.8c0,0,0,0,0,0c0,0,0,0,0,0
		c0.1,0.2,0.2,0.4,0.3,0.6c1.2,2.6,5.5,0.7,4.6-1.9c-1.4-4.3-3-8.6-4.7-12.8c-9.9-35,2-73.1,23.1-102.1
		c11.7-16.1,26.2-30.2,41.8-42.6c15.7-12.5,32.8-23.4,51-32c17.8-8.4,36.8-14.5,56.3-17.4c-23.4,18.6-45.4,39-64.7,61.9
		c-20.8,24.6-38.5,52-49.9,82.2c-6.4,17-10.7,34.7-12.5,52.7c-0.2,2.3,2.8,3.1,4.3,1.8c21.1-18.7,48-30.8,76-34.3
		c27.2-3.3,55.1,1.7,79.6,14.1c8.6,4.3,16.7,9.5,24.2,15.5c-3.3-1-6.7-1.7-10.1-2.3c-9.9-1.7-20.1-2.5-30.1-3.3
		c-20.4-1.5-41.4-0.8-60.4,7.4c-33.6,14.6-54,48.5-63.4,82.5c-4.1,14.8-6.5,30-8.1,45.3h5c3.3-30.2,9.5-60.3,26.3-85.9
		c9.1-14,21.2-26.3,36-34.3c17.3-9.4,37-11.3,56.3-10.5c11,0.4,22.1,1.4,33,2.9c10.3,1.4,20.6,3.9,29,10.3c2.3,1.8,4.9-2,3-3.9
		c-19.8-20.3-45.6-34.6-73.3-40.6c-28.4-6.2-58.3-3.4-85.2,7.7c-13.1,5.4-25.3,12.7-36.3,21.6c4-29.1,14.6-57,29.5-82.3
		c16.3-27.7,37.4-52.4,60.6-74.6c13.1-12.5,26.9-24.3,41.3-35.3c1.7-1.3,1.5-4.9-1.3-4.7c-41.7,4.3-80.8,22.5-113.9,47.7
		c-32.4,24.8-62,57.3-71.8,98c-2.8,11.8-3.9,23.9-3.1,35.9c-15.2-31.4-36.5-59.8-62.4-83.1c-36.7-33-82.4-55.1-131-63.8
		c-27.9-5-56.5-5.6-84.6-1.6C1035.4,33.4,1035.5,37.4,1037.8,37.9z"/>
</g>
</svg>
