<?xml version="1.0" encoding="utf-8"?>
<!-- Generator: Adobe Illustrator 27.9.6, SVG Export Plug-In . SVG Version: 9.03 Build 54986)  -->
<svg version="1.1" id="Calque_1" xmlns="http://www.w3.org/2000/svg" xmlns:xlink="http://www.w3.org/1999/xlink" x="0px" y="0px"
	 viewBox="0 0 624.2 949" style="enable-background:new 0 0 624.2 949;" xml:space="preserve">
<style type="text/css">
	.st0{fill:#33C276;}
	.st1{fill:#A6E243;}
	.st2{fill:#956B3E;}
	.st3{fill:#E2A60B;}
</style>
<g>
	<path class="st0" d="M421.5,496.1C421.5,496.1,421.5,496.1,421.5,496.1c-8.3,5.9-20,6.6-28.9,1.7c-15,19-46.5,21.9-64.7,5.9
		c-20.4,14.8-53.5,6-63.8-17c-20.7,5.5-43.6-15.2-40.3-36.4c-14.2,1.3-28.9-5.3-37.4-16.9c-8.4-11.5-10.3-27.6-4.8-40.7
		c-14.4,2.4-29.9-5.5-36.5-18.5c-6.6-13-3.7-30.2,6.7-40.3c-28.6-14.2-35.9-58.5-13.3-81.1c-16.3-18.5-19-47.8-6.3-69
		c6.5-10.9,16.8-20.2,18.5-32.7c0.8-5.7-0.3-11.6,0-17.3c1.1-21.1,24.3-38.1,44.7-32.8c9.7-33.2,40.7-59.1,75.1-62.8
		c3.5-0.4,7.1-0.6,10.2-2.1c3.8-1.9,6.3-5.5,9.1-8.6C308.8,6,343.4,0.8,367.6,15.7c12.5-6.5,25.7-13.2,39.9-12.9
		s29.1,10.3,29.8,24.4c16.6-8,36.9-7.9,53.4,0.2c8.1,4,15.2,9.7,22.2,15.4c8.4,6.8,16.8,13.6,25.2,20.4
		c14.5,11.8,30.5,26.5,29.5,45.2c-0.1,2.8-0.7,5.6,0,8.3c1.4,5.3,6.9,8.2,11.4,11.2c21.5,14.2,30.3,44.7,19.8,68.2
		c14.7,4.5,23.1,21.1,22.6,36.5s-8.1,29.6-16.5,42.5c12.1,8.7,13.8,26.8,8.1,40.5c-5.8,13.7-17.3,24.1-28.4,33.9
		c12.9,6.2,21,21.1,19.1,35.2s-13.6,26.4-27.7,29c2.8,12.2-6.3,24.6-17.7,29.9c-11.4,5.2-24.4,5.1-37,4.8c6.1,6.7,1.8,18.3-6,22.8
		c-7.8,4.5-17.4,4-26.4,3.4c-10.7-0.7-21.9,11.8-36.7,9.2c-4.9-0.9-13.8-7.4-18.1-5.9C430.1,479.2,426.4,492.6,421.5,496.1z"/>
	<g>
		<path class="st1" d="M598.8,196c10.5-23.5,1.6-54-19.8-68.2c-4.6-3-10-5.9-11.4-11.2c-0.7-2.7-0.2-5.5,0-8.3
			c1-18.7-15-33.4-29.5-45.2c-8.4-6.8-16.8-13.6-25.2-20.4c-7-5.7-14.1-11.4-22.2-15.4c-16.5-8.2-36.8-8.2-53.4-0.2
			c-0.7-14.1-15.7-24.1-29.8-24.4c-14.1-0.3-27.3,6.4-39.9,12.9C343.4,0.8,308.8,6,290.1,27.5c-2.8,3.2-5.3,6.8-9.1,8.6
			c-3.1,1.6-6.7,1.7-10.2,2.1c-34.4,3.6-65.4,29.5-75.1,62.8c-20.5-5.3-43.6,11.7-44.7,32.8c-0.3,5.8,0.8,11.6,0,17.3
			c-0.1,0.5-0.2,1-0.3,1.5c13.8,16.8,40.5,20.3,56.9,2.4c0,0,0,0,0,0c13.7,19.5,47.1,19.8,61.2,0.6c15.5,18.7,49.1,17.3,62.9-2.6
			c7.8,20.8,40.5,25.7,54.1,8.2c-0.7,25.5,30.3,45.9,53.4,35.2c-1,10-1,21.1,5.4,28.7c6.4,7.7,21.5,7.8,24.7-1.6
			c-4.6,15.8,5,34.5,20.7,39.8c2.6,0.9,6.2,0.6,8.1-0.9c-6.2,19.3,6.1,43,26,48.3c-8.1,8.8-10.6,22.4-6,33.5
			c4.6,11.1,15.9,19,27.9,19.5c-10.4,9-14.4,24.6-9.6,37.5c4.8,12.9,18,22.1,31.7,22.1c-0.4,4.1,0.1,8.1,1.4,11.9
			c5.2-6,8.2-13.7,6.4-21.4c14.1-2.5,25.8-14.8,27.7-29c1.9-14.2-6.2-29.1-19.1-35.2c11.1-9.9,22.6-20.2,28.4-33.9
			c5.8-13.7,4-31.8-8.1-40.5c8.4-12.9,16-27.1,16.5-42.5C621.9,217.1,613.5,200.5,598.8,196z"/>
	</g>
	<path d="M420.1,493.7c-7.5,5.4-17.9,6.1-26.1,1.7c-1-0.5-2.6-0.5-3.4,0.4c-14.3,17.8-43.3,20.9-60.7,5.9c-0.9-0.8-2.3-1.2-3.4-0.4
		c-19.5,13.9-50,5.8-60-16c-0.5-1.1-2-1.6-3.1-1.3c-18.7,4.7-39.7-13.6-36.9-33c0.2-1.6-0.7-3.7-2.7-3.5c-13.3,1.1-27-4.6-35-15.5
		c-8.2-11.1-9.7-26-4.5-38.6c0.9-2.2-1.6-3.7-3.4-3.4c-13.3,2-27.3-5.3-33.3-17.2c-6.1-12-3.1-27.6,6.3-37c1.2-1.2,1-3.5-0.6-4.4
		c-21.2-10.7-29.9-38-22.8-60c2-6.3,5.5-12,10.1-16.7c1.1-1.1,1-2.8,0-3.9c-16.1-18.5-17.9-47.1-4.7-67.6
		c6.8-10.6,16.4-20,17.8-33.1c0.7-7-1-14,0.6-20.9c1.2-5.4,4-10.3,7.7-14.4c8.2-9,20.8-14.1,32.9-11.2c1.5,0.4,3-0.5,3.4-1.9
		c5.2-17.7,16.6-33.4,31.5-44.4c7.3-5.4,15.5-9.7,24.1-12.6c4.3-1.4,8.7-2.5,13.2-3.3c5.2-0.8,10.8-0.6,15.5-3.1
		c4.5-2.4,7.3-6.8,10.7-10.4c3-3.2,6.3-6,10-8.3c7.3-4.7,15.7-7.7,24.4-9c8.7-1.2,17.7-0.6,26.1,2c4.2,1.3,8,3.3,11.9,5.3
		c2.5,1.3,4.9-0.8,7.1-1.9c2.7-1.4,5.4-2.7,8.2-4c10.7-4.8,23.1-8.6,34.7-5c9.1,2.8,17.9,10.1,18.5,20.2c0.1,2.2,2.2,3.3,4.2,2.4
		c17-8.1,37.5-7.3,53.8,1.9c8.9,5,16.7,11.8,24.5,18.2c7.8,6.4,15.8,12.6,23.5,19.1c12.5,10.6,25.5,23.7,24.1,41.4
		c-0.4,4.6,0,8.7,3,12.4c2.5,3.1,6.1,5.1,9.3,7.3c6.3,4.1,11.6,9.7,15.5,16.2c8.7,14.4,10.8,33,4,48.6c-0.7,1.7-0.2,3.5,1.7,4.1
		c12.6,4,19.8,17.4,20.5,30c1,16.4-7.4,31.6-16.1,44.9c-0.9,1.4-0.2,2.9,1,3.8c10.5,7.8,11.7,23,7.9,34.5
		c-4.9,14.7-17.5,25.6-28.8,35.6c-1.3,1.1-1,3.6,0.6,4.4c11.9,5.8,19.5,19.2,17.7,32.5c-1.8,13.3-12.7,24.2-25.7,26.7
		c-1.5,0.3-2.2,2-1.9,3.4c2.3,10.8-5.6,21.1-14.8,25.9c-11.3,6-24.8,5.5-37.2,5.2c-2.6-0.1-3.5,3-2,4.7c2.7,3.2,2.4,7.7,0.8,11.3
		c-1.9,4.3-5.4,7.3-9.8,8.8c-5.3,1.9-10.9,2-16.4,1.7c-4.6-0.2-8.6-0.5-13,0.9c-8.1,2.7-15.5,8.2-24.4,8.3c-4.5,0.1-8-1.8-12-3.7
		c-3.3-1.5-7.4-3.6-11.1-2.6c-3.5,1-5.4,5.1-7,8C424.8,486.4,423.2,491.3,420.1,493.7c-2.8,2.2,0,7,2.8,4.8c3.2-2.5,5-6,6.9-9.5
		c1-1.9,1.9-3.7,2.9-5.6c0.4-0.7,1.6-2.7,2-2.9c1.4-0.6,3.6,0.5,4.9,1c2.1,0.9,4.2,2,6.3,2.9c4.3,2,8.6,2.8,13.4,2.2
		c4.8-0.6,9.3-2.3,13.8-4.3c3.9-1.8,7.8-3.9,12.1-4.8c2.2-0.5,4.4-0.2,6.6-0.1c3.1,0.2,6.3,0.3,9.4,0.1c5.6-0.3,11.5-1.5,16.3-4.6
		c8.5-5.7,13-18.3,5.8-26.7c-0.7,1.6-1.3,3.2-2,4.7c14,0.3,29.6,0.6,41.9-7.1c10.5-6.5,18-18.5,15.4-31.1c-0.6,1.1-1.3,2.3-1.9,3.4
		c11.7-2.2,21.9-10.6,26.8-21.4c5-11.2,3.8-24.1-2.7-34.4c-3.6-5.7-8.7-10.5-14.8-13.5c0.2,1.5,0.4,2.9,0.6,4.4
		c12.5-11.1,26.2-23.3,30.8-40c3.8-13.8,1-30-11-38.9c0.3,1.3,0.7,2.5,1,3.8c9.5-14.5,18.6-31.8,16.6-49.8
		c-1.6-14.5-10-28.7-24.4-33.3c0.6,1.4,1.1,2.7,1.7,4.1c6.5-14.9,6.1-31.9-0.2-46.8c-3.1-7.2-7.6-13.9-13.3-19.3
		c-3-2.8-6.3-5.1-9.7-7.3c-3.5-2.3-7.6-4.9-7.9-9.5c-0.2-2.5,0.3-5,0.3-7.6c0-2.2-0.2-4.4-0.6-6.6c-0.7-4-2.3-8-4.2-11.6
		c-4.3-7.9-10.6-14.5-17.2-20.5c-7.8-7-16.2-13.4-24.3-20c-8.2-6.7-16.3-13.8-25.2-19.5c-18.9-12-42.7-13.6-62.9-4
		c1.4,0.8,2.8,1.6,4.2,2.4c-0.9-13.9-13-23.8-26-26.4c-16.9-3.4-33.3,5-47.8,12.5c0.9,0,1.9,0,2.8,0C345.6-1,313.4,2.4,293,20.6
		c-5.4,4.8-9.2,12.6-16.9,14.2c-3.9,0.8-7.9,0.9-11.8,1.6c-3.4,0.6-6.8,1.4-10.1,2.5c-13.5,4.2-26,11.6-36.3,21.3
		c-11.6,10.9-20.4,24.8-24.9,40.1c1.1-0.6,2.3-1.3,3.4-1.9c-11.8-2.9-24,0.6-33.4,8c-10,7.9-15.3,19.5-14.9,32.3
		c0.1,4.3,0.7,8.7-0.1,12.9c-0.6,3.3-1.8,6.4-3.4,9.3c-3.3,6.1-7.8,11.4-11.7,17.1c-7.5,10.8-11.5,23.5-11.3,36.7
		c0.2,14.7,5.4,29.1,15.1,40.2c0-1.3,0-2.6,0-3.9c-18.5,18.8-18.3,50.9-2.8,71.4c4.4,5.9,10,10.7,16.6,14.1
		c-0.2-1.5-0.4-2.9-0.6-4.4c-8.8,8.8-12.6,21.7-10.5,33.9c2.1,12.2,10.9,22.2,22.2,27c6.6,2.8,13.6,3.6,20.7,2.6
		c-1.1-1.1-2.3-2.3-3.4-3.4c-5.8,14.2-3.7,31.3,5.5,43.5c9.1,12,24.3,18.9,39.3,17.6c-0.9-1.2-1.8-2.3-2.7-3.5
		c-3.4,23.5,20.5,45.6,43.7,39.8c-1-0.4-2.1-0.9-3.1-1.3c11.2,24.3,45.8,33.5,67.6,18c-1.1-0.1-2.2-0.3-3.4-0.4
		c19.5,16.9,52.3,14.4,68.6-5.9c-1.1,0.1-2.2,0.3-3.4,0.4c9.8,5.2,22.5,4.9,31.7-1.7C425.8,496.4,423,491.6,420.1,493.7z"/>
	<path class="st2" d="M60.1,949c-1.6-32.9-3.1-65.7-0.5-99.1c13-168.7,82.1-333.3,196.3-458.6c42-46.1,89.5-86.9,136.9-127.6
		c-8.2-5.8-16.3-11.7-24.5-17.5C246.8,327.7,147.7,442.3,84.7,574.4C68.1,609,54.1,644.8,42.6,681.4
		C22.5,745.7,10.2,812.4,6.1,879.6c-1.3,22-4.6,47.8-2.3,69.4H60.1z"/>
	<path d="M6.3,949c-1.6-13.5-0.4-27.7,0.5-40.8c2.2-31.5,4.3-62.9,8.7-94.2c5.5-38.8,13.7-77.1,24.6-114.7
		c12.3-42.4,28-83.7,47-123.5c24.3-51,54.1-99.4,88.4-144.4c34.7-45.4,74.1-87.1,117.4-124.3c24-20.6,49.1-39.8,75.3-57.5
		c6.7,4.8,13.3,9.6,20,14.3c-43.8,37.6-87.7,75.4-127.2,117.7c-35.7,38.1-67.3,80-94.2,124.7c-26.8,44.3-49,91.4-66.5,140.1
		c-17.5,48.9-30.2,99.6-37.7,151c-4,27.2-6.8,54.6-7.2,82.1c-0.3,23.2,0.7,46.3,1.8,69.5h5.5c-0.7-15.3-1.4-30.7-1.7-46
		c-0.6-28.7,1-57.3,4.4-85.8c6.2-51.3,17.6-102,33.8-151.1c16.2-48.9,37.2-96.2,62.7-140.9c25.5-44.7,55.6-86.9,89.8-125.4
		c38.6-43.4,82.2-82,126.2-119.8c5.5-4.7,11-9.5,16.6-14.2c1.5-1.3,0.8-3.4-0.6-4.4c-8.2-5.8-16.3-11.7-24.5-17.5
		c-0.8-0.5-2-0.5-2.8,0c-47.6,32-91.9,69-131.9,110.1c-40,41.2-75.7,86.5-106.3,135c-17.1,27.1-32.6,55.1-46.4,84
		c-34.9,73.3-58.9,151.6-71,231.8c-5,33.1-7.3,66.4-9.8,99.8c-1.1,14.3-2.4,29.7-0.7,44.4H6.3z"/>
	<g>
		<path class="st0" d="M327.5,201.3c-4.6-0.1-7.9,4.7-10,9.1c-2.8,5.8-5.1,12.4-3.8,18.7c1.4,6.4,8,11.7,13.6,9.2
			c-3.6,7.3-2.1,17.2,3.7,22.8c5.7,5.6,15.1,6.4,21.6,1.9c1.5,8.3,3.6,17,9.1,23.1c5.6,6.1,15.6,8.2,21.4,2.4
			c3.8,8.6,12.8,14.3,21.7,13.6c8.9-0.7,17.1-7.6,19.7-16.7"/>
		<path d="M327.5,198.5c-8.5,0-12.7,10.2-15.1,16.9c-2.8,7.9-2.9,17.7,4.2,23.4c3.6,2.8,7.8,3.7,12.1,1.9c-1.3-1.3-2.5-2.5-3.8-3.8
			c-3.2,6.6-3,14.3,0.3,20.9c3.3,6.5,10,10.7,17.3,10.9c4,0.1,8.2-1,11.5-3.3c-1.4-0.6-2.7-1.1-4.1-1.7c1.6,9.1,4.1,19.7,11.5,25.9
			c6.6,5.6,17,7.3,23.7,0.8c-1.5-0.2-2.9-0.4-4.4-0.6c3.2,7.2,10.1,12.9,17.9,14.5c7.9,1.6,15.8-1.1,21.5-6.6
			c3.3-3.2,5.7-7.3,7-11.7c1-3.4-4.3-4.9-5.4-1.5c-2.2,7.5-9,14.1-17,14.7c-8.4,0.6-15.9-4.8-19.3-12.2c-0.8-1.7-3.2-1.7-4.4-0.6
			c-4.8,4.6-12.6,2.4-16.9-1.9c-5.8-5.8-7.6-14.6-8.9-22.4c-0.3-1.7-2.7-2.6-4.1-1.7c-5.8,3.9-13.8,3.2-18.7-1.9
			c-4.6-4.9-5.8-13-2.8-19c1.3-2.6-1.3-4.9-3.8-3.8c-2.5,1.1-5.5-0.8-7.3-2.9c-2.5-2.9-2.9-6.9-2.3-10.5c0.6-4.3,2.4-8.7,4.5-12.5
			c1.4-2.5,3.5-5.9,6.7-6C331,204,331.1,198.5,327.5,198.5L327.5,198.5z"/>
	</g>
	<g>
		<path class="st3" d="M234.6,376.7C234.6,376.7,234.6,376.7,234.6,376.7c-0.9,1.1-1.9,2.3-2.2,3.8c-0.4,2.5,1.4,4.9,3.7,5.9
			c6.2,2.9,13-2.5,17.7-7.5c14.1-14.7,28.1-29.4,41.9-44.4c4.4-4.9,39.5-37.7,24.6-41.5c-8.6-2.2-37.2,31.4-43.5,37.6
			C262,345.2,247.9,360.6,234.6,376.7z"/>
	</g>
	<g>
		<path class="st3" d="M144.9,489.2c-0.9,1.6-1.8,3.2-1.7,5c0.1,2.8,2.4,5,4.8,6.4c3.8,2.2,8.3,3.1,12.7,2.6
			c15-29.2,37-54.1,54.5-81.8c2.1-3.4,4.3-7.2,3.5-11.1c0,0,0,0,0,0c-3.8-19.2-37.6,22.1-41.3,26.9
			C165,453.5,154.9,471.4,144.9,489.2z"/>
	</g>
	<g>
		<path class="st3" d="M113.3,553C113.3,553,113.3,553,113.3,553c4.1,3.4,9.7,6.9,14.3,4.3c2.6-1.5,3.9-4.5,5-7.3
			c4.2-10,25.4-33.1,5.3-30.9C126.2,520.4,99.5,541.7,113.3,553z"/>
	</g>
	<g>
		<path class="st3" d="M59,690.7c-0.4,2.7-0.8,5.7,0.4,8.2c1.2,2.5,4.6,4.1,6.8,2.5c1.3-1,1.9-2.7,2.3-4.3
			c1.8-6.8,3.6-13.5,5.4-20.3c1.8,1.4,3.1,3.3,3.8,5.5c3-0.1,4.2-3.8,4.6-6.7c4.1-25.8,12.4-50.9,24.5-74c0,0,0,0,0,0
			c4.7-8.9,12.9-22.4,7.2-32.4c-19.3,3.1-24.9,21.5-30.6,37.1C73.3,634.2,63.6,661.2,59,690.7z"/>
	</g>
	<g>
		<path class="st3" d="M22.4,891.4C22.4,891.4,22.4,891.4,22.4,891.4c2.2-8,4.4-15.9,6.6-23.9c3.8,3.1,4.4,8.6,5.3,13.4
			c0.9,4.8,3.3,10.4,8.2,11.1c2.1-18.2,3.5-36.5,4.1-54.8c0.2-5,0.3-10.1-1.3-14.9c-1-3.1-2.8-6-3.2-9.3c-1-7.4,4.7-13.8,6.9-20.9
			c1.7-5.7,1.1-11.8,1.2-17.7c0.2-8.6,12.6-34.6,6.5-38.1c-11.4-6.6-21.7,13-23.5,20C21.9,799.5,20.2,847.2,22.4,891.4z"/>
	</g>
</g>
</svg>
